<svg width="131" height="250" viewBox="0 0 131 250" fill="none" xmlns="http://www.w3.org/2000/svg">
<path style="mix-blend-mode:multiply" opacity="0.15" d="M-30.8238 153.905C-13.295 144.816 9.76077 139.806 34.1065 139.806C58.5323 139.806 81.7014 144.832 99.3391 153.972C119.346 164.336 130.368 178.858 130.368 194.903C130.368 210.897 119.388 225.377 99.4641 235.715C81.9353 244.781 58.8701 249.781 34.51 249.806H34.5056C10.086 249.806 -13.071 244.763 -30.6836 235.641C-50.7022 225.275 -61.7238 210.738 -61.7238 194.701C-61.7256 178.707 -50.7423 164.229 -30.8238 153.905Z" fill="url(#paint0_linear)"/>
<path d="M-77.4334 56.2257C-77.4334 56.1589 -77.457 56.0842 -77.457 56.0174C-77.457 39.9406 -66.4181 25.3851 -46.3964 15.0091C-28.7781 5.8715 -5.60341 0.837036 18.8687 0.837036C43.419 0.837036 66.7068 5.88947 84.4357 15.0759C104.546 25.4935 115.623 40.0905 115.623 56.2178C115.623 56.2846 115.607 56.3262 115.607 56.4182C115.607 56.4744 115.623 56.5502 115.623 56.617C115.623 56.6838 115.607 56.7584 115.607 56.8331C115.607 56.8825 115.623 56.9667 115.623 57.0335C115.623 57.1003 115.607 57.1654 115.607 57.2339C115.607 57.3024 115.623 57.3833 115.623 57.4489C115.623 57.5331 115.607 57.5825 115.607 57.6409C115.607 57.7234 115.623 57.7981 115.623 57.8396C115.623 57.9239 115.607 57.9907 115.607 58.0642C115.607 58.1136 115.623 58.1978 115.623 58.2551C115.623 58.3298 115.607 58.3966 115.607 58.4634C115.607 58.5302 115.623 58.6127 115.623 58.6638C115.623 58.7463 115.607 58.8131 115.607 58.8883C115.607 58.9445 115.623 59.0298 115.623 59.0887C115.623 59.1477 115.607 59.2223 115.607 59.2953C115.607 59.3683 115.623 59.4205 115.623 59.5047C115.623 59.5609 115.607 59.6462 115.607 59.7035C115.607 59.7877 115.623 59.8449 115.623 59.9117C115.623 59.9785 115.607 60.0532 115.607 60.1026C115.607 60.2025 115.623 60.2519 115.623 60.3271C115.623 60.4024 115.607 60.4686 115.607 60.518C115.607 60.6101 115.623 60.6595 115.623 60.7341C115.623 60.8088 115.607 60.8756 115.607 60.9346C115.607 61.0092 115.623 61.076 115.623 61.1428C115.623 61.199 115.607 61.2748 115.607 61.3511C115.607 61.4275 115.623 61.4926 115.623 61.5661C115.623 61.6166 115.607 61.6913 115.607 61.7581C115.607 61.8249 115.623 61.8833 115.623 61.9827C115.623 62.0332 115.607 62.1084 115.607 62.1746C115.607 62.2409 115.623 62.2987 115.623 62.3908C115.623 62.4469 115.607 62.5148 115.607 62.5738C115.607 62.6563 115.623 62.7153 115.623 62.7821C115.623 62.8489 115.607 62.9314 115.607 62.9982C115.607 63.0807 115.623 63.1318 115.623 63.1891C115.623 63.2733 115.607 63.3401 115.607 63.3973C115.607 63.472 115.623 63.5388 115.623 63.6056C115.623 63.6881 115.607 63.7471 115.607 63.8139C115.607 63.8807 115.623 63.9632 115.623 64.03C115.623 64.0968 115.607 64.1552 115.607 64.222C115.607 64.2888 115.623 64.3623 115.623 64.4465C115.623 64.4881 115.607 64.5628 115.607 64.6296C115.607 64.6964 115.623 64.7548 115.623 64.8541C115.623 64.9046 115.607 64.9799 115.607 65.0545C115.607 65.1292 115.623 65.1707 115.623 65.2628C115.623 65.3189 115.607 65.3869 115.607 65.4615C115.607 65.5362 115.623 65.5867 115.623 65.6619C115.623 65.7181 115.607 65.8113 115.607 65.8702C115.607 65.9527 115.623 66.0195 115.623 66.0785C115.623 66.1374 115.607 66.22 115.607 66.2868C115.607 66.3429 115.623 66.4361 115.623 66.495C115.623 66.5697 115.607 66.6365 115.607 66.7112C115.607 66.7606 115.623 66.8526 115.623 66.902C115.623 66.9767 115.607 67.0435 115.607 67.1103C115.607 67.1771 115.623 67.2344 115.623 67.3107C115.623 67.3871 115.607 67.4426 115.607 67.5353C115.607 67.5914 115.623 67.6515 115.623 67.734C115.623 67.8008 115.607 67.8513 115.607 67.926C115.607 68.0006 115.623 68.0675 115.623 68.1247C115.623 68.2168 115.607 68.2583 115.607 68.342C115.607 68.4077 115.623 68.4913 115.623 68.5407C115.623 68.6249 115.607 68.6822 115.607 68.749C115.607 68.8158 115.623 68.8983 115.623 68.9494C115.623 85.0262 104.588 99.6137 84.561 109.984C66.9415 119.12 43.7585 124.147 19.272 124.147H19.2678C-5.27877 124.147 -28.5549 119.078 -46.2576 109.908C-66.3806 99.4823 -77.4564 84.8775 -77.4564 68.7669C-77.4564 68.7001 -77.4327 68.6255 -77.4327 68.5587C-77.4327 68.4919 -77.4564 68.4335 -77.4564 68.3504C-77.4564 68.2943 -77.4327 68.2168 -77.4327 68.1421C-77.4327 68.0927 -77.4564 68.0085 -77.4564 67.9417C-77.4564 67.8749 -77.4327 67.8176 -77.4327 67.7334C-77.4327 67.6773 -77.4564 67.6015 -77.4564 67.5347C-77.4564 67.4679 -77.4327 67.409 -77.4327 67.3102C-77.4327 67.2675 -77.4564 67.1928 -77.4564 67.1097C-77.4564 67.0429 -77.4327 66.9846 -77.4327 66.9267C-77.4327 66.8521 -77.4564 66.7757 -77.4564 66.7106C-77.4564 66.6359 -77.4327 66.577 -77.4327 66.5102C-77.4327 66.4434 -77.4564 66.3687 -77.4564 66.3019C-77.4564 66.2351 -77.4327 66.1683 -77.4327 66.0858C-77.4327 66.019 -77.4564 65.9522 -77.4564 65.8949C-77.4564 65.8203 -77.4327 65.7534 -77.4327 65.6788C-77.4327 65.6041 -77.4564 65.5278 -77.4564 65.461C-77.4564 65.4116 -77.4327 65.3369 -77.4327 65.2622C-77.4327 65.1876 -77.4564 65.1208 -77.4564 65.054C-77.4564 64.9872 -77.4327 64.9288 -77.4327 64.8536C-77.4327 64.7783 -77.4564 64.7295 -77.4564 64.6627C-77.4564 64.5959 -77.4327 64.5134 -77.4327 64.4465C-77.4327 64.3623 -77.4564 64.3129 -77.4564 64.2467C-77.4564 64.1805 -77.4327 64.0974 -77.4327 64.048C-77.4327 63.9638 -77.4564 63.897 -77.4564 63.8234C-77.4564 63.7499 -77.4327 63.6898 -77.4327 63.6404C-77.4327 63.5495 -77.4564 63.4911 -77.4564 63.4159C-77.4564 63.3597 -77.4327 63.2744 -77.4327 63.2154C-77.4327 63.1565 -77.4564 63.0818 -77.4564 62.9993C-77.4564 62.9499 -77.4327 62.8578 -77.4327 62.8084C-77.4327 62.7338 -77.4564 62.6574 -77.4564 62.5839C-77.4564 62.5345 -77.4327 62.4598 -77.4327 62.393C-77.4327 62.3262 -77.4564 62.2768 -77.4564 62.1769C-77.4564 62.1264 -77.4327 62.0517 -77.4327 61.9849C-77.4327 61.9024 -77.4564 61.8434 -77.4564 61.7783C-77.4564 61.7025 -77.4327 61.6368 -77.4327 61.5779C-77.4327 61.4954 -77.4564 61.4364 -77.4564 61.3696C-77.4564 61.3028 -77.4327 61.2203 -77.4327 61.1692C-77.4327 61.0783 -77.4564 61.0199 -77.4564 60.9531C-77.4564 60.8863 -77.4327 60.8116 -77.4327 60.7622C-77.4327 60.6797 -77.4564 60.6129 -77.4564 60.5461C-77.4564 60.4793 -77.4327 60.4046 -77.4327 60.3457C-77.4327 60.271 -77.4564 60.2042 -77.4564 60.1211C-77.4564 60.0706 -77.4327 60.0038 -77.4327 59.9207C-77.4327 59.8539 -77.4564 59.7888 -77.4564 59.7124C-77.4564 59.6563 -77.4327 59.5884 -77.4327 59.5137C-77.4327 59.439 -77.4564 59.3964 -77.4564 59.2965C-77.4564 59.247 -77.4327 59.1724 -77.4327 59.0977C-77.4327 59.0231 -77.4564 58.9562 -77.4564 58.8894C-77.4564 58.8226 -77.4327 58.7637 -77.4327 58.6907C-77.4327 58.6177 -77.4564 58.5492 -77.4564 58.4903C-77.4564 58.4313 -77.4327 58.3488 -77.4327 58.282C-77.4327 58.1995 -77.4564 58.1327 -77.4564 58.0822C-77.4564 58.0075 -77.4327 57.9328 -77.4327 57.866C-77.4327 57.7992 -77.4564 57.7246 -77.4564 57.6752C-77.4564 57.591 -77.4327 57.5337 -77.4327 57.4506C-77.4327 57.3945 -77.4564 57.3091 -77.4564 57.2519C-77.4564 57.1772 -77.4327 57.1104 -77.4327 57.0358C-77.4327 56.9853 -77.4564 56.9106 -77.4564 56.8353C-77.4564 56.7601 -77.4327 56.686 -77.4327 56.6192C-77.4327 56.5698 -77.4564 56.494 -77.4564 56.4205C-77.4564 56.347 -77.4334 56.2925 -77.4334 56.2257Z" fill="url(#paint1_linear)"/>
<path d="M-46.3964 15.0085C-28.7781 5.87088 -5.60341 0.836426 18.8687 0.836426C43.419 0.836426 66.7068 5.88882 84.4357 15.0752C104.546 25.4928 115.623 40.0898 115.623 56.2171C115.623 72.2939 104.588 86.8482 84.561 97.2416C66.9415 106.354 43.7585 111.381 19.272 111.406H19.2678C-5.27877 111.406 -28.5549 106.338 -46.2576 97.1669C-66.3806 86.7494 -77.4564 72.1367 -77.4564 56.0178C-77.457 39.9404 -66.4181 25.3844 -46.3964 15.0085Z" fill="url(#paint2_linear)"/>
<g style="mix-blend-mode:overlay" opacity="0.85">
<path d="M-71.7129 56.0173C-71.7129 70.3802 -61.2894 83.3953 -42.3731 92.6754C-25.7188 100.838 -3.83735 105.349 19.2566 105.349C42.278 105.341 64.0965 100.855 80.6631 92.7501C99.505 83.4873 109.878 70.5228 109.878 56.2008C109.878 41.8295 99.4618 28.8397 80.5467 19.578C63.8762 11.3818 41.9665 6.88745 18.8763 6.88745C-4.13069 6.88745 -25.9322 11.3639 -42.5032 19.5112C-61.335 28.7471 -71.7129 41.7127 -71.7129 56.0173ZM-60.737 56.0268C-60.737 43.4519 -51.6073 32.0603 -35.055 23.9383C-20.4871 16.7734 -1.31941 12.8369 18.9056 12.8369C39.2038 12.8369 58.4611 16.7891 73.1147 23.9871C89.7408 32.1344 98.9018 43.5681 98.9018 56.184C98.9018 68.7825 89.7815 80.1746 73.2192 88.3141C58.6532 95.4436 39.4817 99.3817 19.2392 99.3974C-1.05904 99.3974 -20.3013 95.4279 -34.9449 88.2551C-51.5753 80.0921 -60.737 68.6573 -60.737 56.0268Z" fill="white"/>
</g>
<g style="mix-blend-mode:overlay">
<path d="M-46.258 97.1688C-28.5541 106.34 -5.27926 111.408 19.2673 111.408L19.276 112.78L19.2716 111.408C43.758 111.382 66.9408 106.355 84.5603 97.2434C104.333 86.9831 115.294 72.6617 115.569 56.824C115.576 57.0913 115.622 57.3484 115.622 57.6145C115.622 73.6913 104.587 88.2468 84.5597 98.6402C66.9402 107.752 43.7574 112.778 19.271 112.803H19.2667C-5.27987 112.803 -28.556 107.735 -46.2587 98.5655C-66.3817 88.1463 -77.4575 73.5336 -77.4575 57.4163C-77.4575 57.1508 -77.4113 56.8836 -77.4076 56.618C-77.1286 72.4944 -66.1209 86.8815 -46.258 97.1688Z" fill="white"/>
</g>
<path d="M40.5313 71.4783C41.0455 69.3894 40.253 67.218 38.0916 65.0875C41.4836 65.6888 44.9624 65.787 48.3898 65.3783C51.5703 64.9945 54.6402 64.0708 57.4357 62.6567C61.7854 60.3932 63.4626 57.6969 62.401 54.5268C61.5445 51.8479 58.6476 49.0854 53.8143 46.2392L61.8123 42.095L52.2573 37.1594L44.3981 41.221L38.5088 38.1749L46.3773 34.1055L36.7596 29.1216L28.8974 33.191L23.9928 30.6524L17.9728 27.5317L8.45347 32.4584L14.4816 35.587L-21.0816 54.0003L-27.1015 50.8795L-36.6146 55.8062L-25.6902 61.4817L-30.0448 63.7273L-20.4303 68.7123L-16.0769 66.4489L-11.2755 68.9464L-10.1927 69.5028L-14.5461 71.7584L-4.99973 76.6985L-0.580643 74.4109C5.95605 77.6636 12.1599 79.5363 17.9653 80.1117C24.2893 80.7017 29.8908 79.7699 34.639 77.3048C38.0228 75.564 39.9651 73.6087 40.5313 71.4783ZM39.7475 48.6436C41.2615 49.3615 42.6338 50.2976 43.8099 51.4145C44.4518 51.8843 44.9475 52.495 45.2488 53.1874C45.8419 54.5689 44.9986 55.809 42.8566 56.9323C40.6648 58.0442 38.1259 58.4773 35.6323 58.1646C34.4499 58.0542 33.2877 57.8108 32.173 57.4398C30.3211 56.9151 28.5427 56.2002 26.8736 55.3094L22.0379 52.8056L16.1536 49.7506L14.2569 48.7693L27.1007 42.1197L33.7944 45.6003L33.8214 45.5762L34.9073 46.1421L39.7475 48.6436ZM15.5675 71.27C13.2795 70.9818 11.0555 70.3757 8.9752 69.4736C8.13004 69.0997 7.27166 68.7168 6.35894 68.243L-0.697636 64.598L-1.78736 64.0321L-1.76353 64.0158L-8.46165 60.5353L5.03339 53.545L6.92511 54.5448L12.818 57.5813L19.8802 61.2438C20.788 61.7176 21.5119 62.1582 22.235 62.6C26.8162 65.5125 27.085 67.9416 23.1852 69.9636C20.8886 71.1721 18.1982 71.6336 15.5669 71.2705L15.5675 71.27Z" fill="#85FFFC"/>
<g style="mix-blend-mode:multiply" opacity="0.21">
<path style="mix-blend-mode:multiply" opacity="0.21" d="M1.30991 108.943H0.187622V124.87H1.30991V108.943Z" fill="url(#paint3_linear)"/>
<path style="mix-blend-mode:multiply" opacity="0.21" d="M6.47972 109.4H5.36243V125.352H6.47972V109.4Z" fill="url(#paint4_linear)"/>
<path style="mix-blend-mode:multiply" opacity="0.21" d="M11.7234 109.7H10.6061V125.694H11.7234V109.7Z" fill="url(#paint5_linear)"/>
<path style="mix-blend-mode:multiply" opacity="0.21" d="M17.0183 109.85H15.8966V125.877H17.0183V109.85Z" fill="url(#paint6_linear)"/>
<path style="mix-blend-mode:multiply" opacity="0.21" d="M22.3551 109.833H21.2328V125.893H22.3551V109.833Z" fill="url(#paint7_linear)"/>
<path style="mix-blend-mode:multiply" opacity="0.21" d="M27.6594 109.658H26.5371V125.752H27.6594V109.658Z" fill="url(#paint8_linear)"/>
<path style="mix-blend-mode:multiply" opacity="0.21" d="M32.908 109.325H31.7863V125.453H32.908V109.325Z" fill="url(#paint9_linear)"/>
<path style="mix-blend-mode:multiply" opacity="0.21" d="M38.0872 108.834H36.9699V125.003H38.0872V108.834Z" fill="url(#paint10_linear)"/>
<path style="mix-blend-mode:multiply" opacity="0.21" d="M43.1919 108.202H42.0746V124.395H43.1919V108.202Z" fill="url(#paint11_linear)"/>
<path style="mix-blend-mode:multiply" opacity="0.21" d="M48.2159 107.411H47.0961V123.646H48.2159V107.411Z" fill="url(#paint12_linear)"/>
<path style="mix-blend-mode:multiply" opacity="0.21" d="M53.1424 106.479H52.0226V122.74H53.1424V106.479Z" fill="url(#paint13_linear)"/>
<path style="mix-blend-mode:multiply" opacity="0.21" d="M57.9644 105.397H56.8421V121.699H57.9644V105.397Z" fill="url(#paint14_linear)"/>
<path style="mix-blend-mode:multiply" opacity="0.21" d="M62.6681 104.174H61.5464V120.501H62.6681V104.174Z" fill="url(#paint15_linear)"/>
<path style="mix-blend-mode:multiply" opacity="0.21" d="M67.2467 102.809H66.127V119.178H67.2467V102.809Z" fill="url(#paint16_linear)"/>
<path style="mix-blend-mode:multiply" opacity="0.21" d="M71.6934 101.303H70.5736V117.705H71.6934V101.303Z" fill="url(#paint17_linear)"/>
<path style="mix-blend-mode:multiply" opacity="0.21" d="M75.9936 99.6642H74.8719V116.1H75.9936V99.6642Z" fill="url(#paint18_linear)"/>
<path style="mix-blend-mode:multiply" opacity="0.21" d="M80.1387 97.8834H79.0189V114.352H80.1387V97.8834Z" fill="url(#paint19_linear)"/>
<path style="mix-blend-mode:multiply" opacity="0.21" d="M84.12 95.9774H82.9977V112.488H84.12V95.9774Z" fill="url(#paint20_linear)"/>
<path style="mix-blend-mode:multiply" opacity="0.21" d="M88.8074 93.4312H87.6876V109.974H88.8074V93.4312Z" fill="url(#paint21_linear)"/>
<path style="mix-blend-mode:multiply" opacity="0.21" d="M93.4323 90.5355H92.3125V107.112H93.4323V90.5355Z" fill="url(#paint22_linear)"/>
<path style="mix-blend-mode:multiply" opacity="0.21" d="M97.6525 87.481H96.5346V104.083H97.6525V87.481Z" fill="url(#paint23_linear)"/>
<path style="mix-blend-mode:multiply" opacity="0.21" d="M101.463 84.2604H100.341V100.904H101.463V84.2604Z" fill="url(#paint24_linear)"/>
<path style="mix-blend-mode:multiply" opacity="0.21" d="M104.85 80.8988H103.73V97.5753H104.85V80.8988Z" fill="url(#paint25_linear)"/>
<path style="mix-blend-mode:multiply" opacity="0.21" d="M107.811 77.3954H106.691V94.1053H107.811V77.3954Z" fill="url(#paint26_linear)"/>
<path style="mix-blend-mode:multiply" opacity="0.21" d="M110.337 73.7754H109.218V90.5187H110.337V73.7754Z" fill="url(#paint27_linear)"/>
<path style="mix-blend-mode:multiply" opacity="0.21" d="M112.421 70.0311H111.299V86.8073H112.421V70.0311Z" fill="url(#paint28_linear)"/>
<path style="mix-blend-mode:multiply" opacity="0.21" d="M114.053 66.186H112.936V83.004H114.053V66.186Z" fill="url(#paint29_linear)"/>
<path style="mix-blend-mode:multiply" opacity="0.21" d="M115.234 62.2502H114.112V79.0929H115.234V62.2502Z" fill="url(#paint30_linear)"/>
<path style="mix-blend-mode:multiply" opacity="0.21" d="M115.943 58.2307H114.823V75.1069H115.943V58.2307Z" fill="url(#paint31_linear)"/>
<path style="mix-blend-mode:multiply" opacity="0.21" d="M116.182 54.1367H115.062V71.046H116.182V54.1367Z" fill="url(#paint32_linear)"/>
</g>
<defs>
<linearGradient id="paint0_linear" x1="-61.7238" y1="194.806" x2="130.368" y2="194.806" gradientUnits="userSpaceOnUse">
<stop stop-color="#101213"/>
<stop offset="0.289" stop-color="#0D181A"/>
<stop offset="0.71" stop-color="#062A2D"/>
<stop offset="1" stop-color="#003B3F"/>
</linearGradient>
<linearGradient id="paint1_linear" x1="-77.457" y1="62.4918" x2="115.623" y2="62.4918" gradientUnits="userSpaceOnUse">
<stop offset="0.019" stop-color="#7FFFD6"/>
<stop offset="0.134" stop-color="#51D1AB"/>
<stop offset="0.244" stop-color="#2EAD8A"/>
<stop offset="0.347" stop-color="#149373"/>
<stop offset="0.439" stop-color="#058464"/>
<stop offset="0.513" stop-color="#007F60"/>
</linearGradient>
<linearGradient id="paint2_linear" x1="-5300.65" y1="21.4023" x2="-5397.43" y2="144.95" gradientUnits="userSpaceOnUse">
<stop offset="0.019" stop-color="#7FFFD6"/>
<stop offset="0.134" stop-color="#51D1AB"/>
<stop offset="0.244" stop-color="#2EAD8A"/>
<stop offset="0.347" stop-color="#149373"/>
<stop offset="0.439" stop-color="#058464"/>
<stop offset="0.513" stop-color="#007F60"/>
</linearGradient>
<linearGradient id="paint3_linear" x1="0.748768" y1="100.103" x2="0.748768" y2="140.734" gradientUnits="userSpaceOnUse">
<stop offset="0.019" stop-color="#7FFFD6"/>
<stop offset="0.134" stop-color="#51D1AB"/>
<stop offset="0.244" stop-color="#2EAD8A"/>
<stop offset="0.347" stop-color="#149373"/>
<stop offset="0.439" stop-color="#058464"/>
<stop offset="0.513" stop-color="#007F60"/>
</linearGradient>
<linearGradient id="paint4_linear" x1="5.92107" y1="100.116" x2="5.92107" y2="140.73" gradientUnits="userSpaceOnUse">
<stop offset="0.019" stop-color="#7FFFD6"/>
<stop offset="0.134" stop-color="#51D1AB"/>
<stop offset="0.244" stop-color="#2EAD8A"/>
<stop offset="0.347" stop-color="#149373"/>
<stop offset="0.439" stop-color="#058464"/>
<stop offset="0.513" stop-color="#007F60"/>
</linearGradient>
<linearGradient id="paint5_linear" x1="11.1647" y1="100.103" x2="11.1647" y2="140.745" gradientUnits="userSpaceOnUse">
<stop offset="0.019" stop-color="#7FFFD6"/>
<stop offset="0.134" stop-color="#51D1AB"/>
<stop offset="0.244" stop-color="#2EAD8A"/>
<stop offset="0.347" stop-color="#149373"/>
<stop offset="0.439" stop-color="#058464"/>
<stop offset="0.513" stop-color="#007F60"/>
</linearGradient>
<linearGradient id="paint6_linear" x1="16.4574" y1="100.105" x2="16.4574" y2="140.735" gradientUnits="userSpaceOnUse">
<stop offset="0.019" stop-color="#7FFFD6"/>
<stop offset="0.134" stop-color="#51D1AB"/>
<stop offset="0.244" stop-color="#2EAD8A"/>
<stop offset="0.347" stop-color="#149373"/>
<stop offset="0.439" stop-color="#058464"/>
<stop offset="0.513" stop-color="#007F60"/>
</linearGradient>
<linearGradient id="paint7_linear" x1="21.7939" y1="100.116" x2="21.7939" y2="140.733" gradientUnits="userSpaceOnUse">
<stop offset="0.019" stop-color="#7FFFD6"/>
<stop offset="0.134" stop-color="#51D1AB"/>
<stop offset="0.244" stop-color="#2EAD8A"/>
<stop offset="0.347" stop-color="#149373"/>
<stop offset="0.439" stop-color="#058464"/>
<stop offset="0.513" stop-color="#007F60"/>
</linearGradient>
<linearGradient id="paint8_linear" x1="27.0983" y1="100.114" x2="27.0983" y2="140.736" gradientUnits="userSpaceOnUse">
<stop offset="0.019" stop-color="#7FFFD6"/>
<stop offset="0.134" stop-color="#51D1AB"/>
<stop offset="0.244" stop-color="#2EAD8A"/>
<stop offset="0.347" stop-color="#149373"/>
<stop offset="0.439" stop-color="#058464"/>
<stop offset="0.513" stop-color="#007F60"/>
</linearGradient>
<linearGradient id="paint9_linear" x1="32.3471" y1="100.117" x2="32.3471" y2="140.742" gradientUnits="userSpaceOnUse">
<stop offset="0.019" stop-color="#7FFFD6"/>
<stop offset="0.134" stop-color="#51D1AB"/>
<stop offset="0.244" stop-color="#2EAD8A"/>
<stop offset="0.347" stop-color="#149373"/>
<stop offset="0.439" stop-color="#058464"/>
<stop offset="0.513" stop-color="#007F60"/>
</linearGradient>
<linearGradient id="paint10_linear" x1="37.5286" y1="100.103" x2="37.5286" y2="140.735" gradientUnits="userSpaceOnUse">
<stop offset="0.019" stop-color="#7FFFD6"/>
<stop offset="0.134" stop-color="#51D1AB"/>
<stop offset="0.244" stop-color="#2EAD8A"/>
<stop offset="0.347" stop-color="#149373"/>
<stop offset="0.439" stop-color="#058464"/>
<stop offset="0.513" stop-color="#007F60"/>
</linearGradient>
<linearGradient id="paint11_linear" x1="42.6332" y1="100.105" x2="42.6332" y2="140.735" gradientUnits="userSpaceOnUse">
<stop offset="0.019" stop-color="#7FFFD6"/>
<stop offset="0.134" stop-color="#51D1AB"/>
<stop offset="0.244" stop-color="#2EAD8A"/>
<stop offset="0.347" stop-color="#149373"/>
<stop offset="0.439" stop-color="#058464"/>
<stop offset="0.513" stop-color="#007F60"/>
</linearGradient>
<linearGradient id="paint12_linear" x1="47.656" y1="100.105" x2="47.656" y2="140.742" gradientUnits="userSpaceOnUse">
<stop offset="0.019" stop-color="#7FFFD6"/>
<stop offset="0.134" stop-color="#51D1AB"/>
<stop offset="0.244" stop-color="#2EAD8A"/>
<stop offset="0.347" stop-color="#149373"/>
<stop offset="0.439" stop-color="#058464"/>
<stop offset="0.513" stop-color="#007F60"/>
</linearGradient>
<linearGradient id="paint13_linear" x1="52.5825" y1="100.105" x2="52.5825" y2="140.74" gradientUnits="userSpaceOnUse">
<stop offset="0.019" stop-color="#7FFFD6"/>
<stop offset="0.134" stop-color="#51D1AB"/>
<stop offset="0.244" stop-color="#2EAD8A"/>
<stop offset="0.347" stop-color="#149373"/>
<stop offset="0.439" stop-color="#058464"/>
<stop offset="0.513" stop-color="#007F60"/>
</linearGradient>
<linearGradient id="paint14_linear" x1="57.4033" y1="100.116" x2="57.4033" y2="140.74" gradientUnits="userSpaceOnUse">
<stop offset="0.019" stop-color="#7FFFD6"/>
<stop offset="0.134" stop-color="#51D1AB"/>
<stop offset="0.244" stop-color="#2EAD8A"/>
<stop offset="0.347" stop-color="#149373"/>
<stop offset="0.439" stop-color="#058464"/>
<stop offset="0.513" stop-color="#007F60"/>
</linearGradient>
<linearGradient id="paint15_linear" x1="62.1073" y1="100.109" x2="62.1073" y2="140.731" gradientUnits="userSpaceOnUse">
<stop offset="0.019" stop-color="#7FFFD6"/>
<stop offset="0.134" stop-color="#51D1AB"/>
<stop offset="0.244" stop-color="#2EAD8A"/>
<stop offset="0.347" stop-color="#149373"/>
<stop offset="0.439" stop-color="#058464"/>
<stop offset="0.513" stop-color="#007F60"/>
</linearGradient>
<linearGradient id="paint16_linear" x1="66.6869" y1="100.109" x2="66.6869" y2="140.736" gradientUnits="userSpaceOnUse">
<stop offset="0.019" stop-color="#7FFFD6"/>
<stop offset="0.134" stop-color="#51D1AB"/>
<stop offset="0.244" stop-color="#2EAD8A"/>
<stop offset="0.347" stop-color="#149373"/>
<stop offset="0.439" stop-color="#058464"/>
<stop offset="0.513" stop-color="#007F60"/>
</linearGradient>
<linearGradient id="paint17_linear" x1="71.1335" y1="100.106" x2="71.1335" y2="140.733" gradientUnits="userSpaceOnUse">
<stop offset="0.019" stop-color="#7FFFD6"/>
<stop offset="0.134" stop-color="#51D1AB"/>
<stop offset="0.244" stop-color="#2EAD8A"/>
<stop offset="0.347" stop-color="#149373"/>
<stop offset="0.439" stop-color="#058464"/>
<stop offset="0.513" stop-color="#007F60"/>
</linearGradient>
<linearGradient id="paint18_linear" x1="75.4328" y1="100.108" x2="75.4328" y2="140.736" gradientUnits="userSpaceOnUse">
<stop offset="0.019" stop-color="#7FFFD6"/>
<stop offset="0.134" stop-color="#51D1AB"/>
<stop offset="0.244" stop-color="#2EAD8A"/>
<stop offset="0.347" stop-color="#149373"/>
<stop offset="0.439" stop-color="#058464"/>
<stop offset="0.513" stop-color="#007F60"/>
</linearGradient>
<linearGradient id="paint19_linear" x1="79.5788" y1="100.107" x2="79.5788" y2="140.734" gradientUnits="userSpaceOnUse">
<stop offset="0.019" stop-color="#7FFFD6"/>
<stop offset="0.134" stop-color="#51D1AB"/>
<stop offset="0.244" stop-color="#2EAD8A"/>
<stop offset="0.347" stop-color="#149373"/>
<stop offset="0.439" stop-color="#058464"/>
<stop offset="0.513" stop-color="#007F60"/>
</linearGradient>
<linearGradient id="paint20_linear" x1="83.5588" y1="100.105" x2="83.5588" y2="140.737" gradientUnits="userSpaceOnUse">
<stop offset="0.019" stop-color="#7FFFD6"/>
<stop offset="0.134" stop-color="#51D1AB"/>
<stop offset="0.244" stop-color="#2EAD8A"/>
<stop offset="0.347" stop-color="#149373"/>
<stop offset="0.439" stop-color="#058464"/>
<stop offset="0.513" stop-color="#007F60"/>
</linearGradient>
<linearGradient id="paint21_linear" x1="88.2475" y1="100.115" x2="88.2475" y2="140.745" gradientUnits="userSpaceOnUse">
<stop offset="0.019" stop-color="#7FFFD6"/>
<stop offset="0.134" stop-color="#51D1AB"/>
<stop offset="0.244" stop-color="#2EAD8A"/>
<stop offset="0.347" stop-color="#149373"/>
<stop offset="0.439" stop-color="#058464"/>
<stop offset="0.513" stop-color="#007F60"/>
</linearGradient>
<linearGradient id="paint22_linear" x1="92.8724" y1="100.117" x2="92.8724" y2="140.729" gradientUnits="userSpaceOnUse">
<stop offset="0.019" stop-color="#7FFFD6"/>
<stop offset="0.134" stop-color="#51D1AB"/>
<stop offset="0.244" stop-color="#2EAD8A"/>
<stop offset="0.347" stop-color="#149373"/>
<stop offset="0.439" stop-color="#058464"/>
<stop offset="0.513" stop-color="#007F60"/>
</linearGradient>
<linearGradient id="paint23_linear" x1="97.0936" y1="100.115" x2="97.0936" y2="140.74" gradientUnits="userSpaceOnUse">
<stop offset="0.019" stop-color="#7FFFD6"/>
<stop offset="0.134" stop-color="#51D1AB"/>
<stop offset="0.244" stop-color="#2EAD8A"/>
<stop offset="0.347" stop-color="#149373"/>
<stop offset="0.439" stop-color="#058464"/>
<stop offset="0.513" stop-color="#007F60"/>
</linearGradient>
<linearGradient id="paint24_linear" x1="100.902" y1="100.105" x2="100.902" y2="140.731" gradientUnits="userSpaceOnUse">
<stop offset="0.019" stop-color="#7FFFD6"/>
<stop offset="0.134" stop-color="#51D1AB"/>
<stop offset="0.244" stop-color="#2EAD8A"/>
<stop offset="0.347" stop-color="#149373"/>
<stop offset="0.439" stop-color="#058464"/>
<stop offset="0.513" stop-color="#007F60"/>
</linearGradient>
<linearGradient id="paint25_linear" x1="104.29" y1="100.11" x2="104.29" y2="140.734" gradientUnits="userSpaceOnUse">
<stop offset="0.019" stop-color="#7FFFD6"/>
<stop offset="0.134" stop-color="#51D1AB"/>
<stop offset="0.244" stop-color="#2EAD8A"/>
<stop offset="0.347" stop-color="#149373"/>
<stop offset="0.439" stop-color="#058464"/>
<stop offset="0.513" stop-color="#007F60"/>
</linearGradient>
<linearGradient id="paint26_linear" x1="107.251" y1="100.104" x2="107.251" y2="140.743" gradientUnits="userSpaceOnUse">
<stop offset="0.019" stop-color="#7FFFD6"/>
<stop offset="0.134" stop-color="#51D1AB"/>
<stop offset="0.244" stop-color="#2EAD8A"/>
<stop offset="0.347" stop-color="#149373"/>
<stop offset="0.439" stop-color="#058464"/>
<stop offset="0.513" stop-color="#007F60"/>
</linearGradient>
<linearGradient id="paint27_linear" x1="109.777" y1="100.113" x2="109.777" y2="140.732" gradientUnits="userSpaceOnUse">
<stop offset="0.019" stop-color="#7FFFD6"/>
<stop offset="0.134" stop-color="#51D1AB"/>
<stop offset="0.244" stop-color="#2EAD8A"/>
<stop offset="0.347" stop-color="#149373"/>
<stop offset="0.439" stop-color="#058464"/>
<stop offset="0.513" stop-color="#007F60"/>
</linearGradient>
<linearGradient id="paint28_linear" x1="111.86" y1="100.111" x2="111.86" y2="140.742" gradientUnits="userSpaceOnUse">
<stop offset="0.019" stop-color="#7FFFD6"/>
<stop offset="0.134" stop-color="#51D1AB"/>
<stop offset="0.244" stop-color="#2EAD8A"/>
<stop offset="0.347" stop-color="#149373"/>
<stop offset="0.439" stop-color="#058464"/>
<stop offset="0.513" stop-color="#007F60"/>
</linearGradient>
<linearGradient id="paint29_linear" x1="113.495" y1="100.108" x2="113.495" y2="140.74" gradientUnits="userSpaceOnUse">
<stop offset="0.019" stop-color="#7FFFD6"/>
<stop offset="0.134" stop-color="#51D1AB"/>
<stop offset="0.244" stop-color="#2EAD8A"/>
<stop offset="0.347" stop-color="#149373"/>
<stop offset="0.439" stop-color="#058464"/>
<stop offset="0.513" stop-color="#007F60"/>
</linearGradient>
<linearGradient id="paint30_linear" x1="114.673" y1="100.113" x2="114.673" y2="140.737" gradientUnits="userSpaceOnUse">
<stop offset="0.019" stop-color="#7FFFD6"/>
<stop offset="0.134" stop-color="#51D1AB"/>
<stop offset="0.244" stop-color="#2EAD8A"/>
<stop offset="0.347" stop-color="#149373"/>
<stop offset="0.439" stop-color="#058464"/>
<stop offset="0.513" stop-color="#007F60"/>
</linearGradient>
<linearGradient id="paint31_linear" x1="115.383" y1="100.117" x2="115.383" y2="140.739" gradientUnits="userSpaceOnUse">
<stop offset="0.019" stop-color="#7FFFD6"/>
<stop offset="0.134" stop-color="#51D1AB"/>
<stop offset="0.244" stop-color="#2EAD8A"/>
<stop offset="0.347" stop-color="#149373"/>
<stop offset="0.439" stop-color="#058464"/>
<stop offset="0.513" stop-color="#007F60"/>
</linearGradient>
<linearGradient id="paint32_linear" x1="115.622" y1="100.113" x2="115.622" y2="140.729" gradientUnits="userSpaceOnUse">
<stop offset="0.019" stop-color="#7FFFD6"/>
<stop offset="0.134" stop-color="#51D1AB"/>
<stop offset="0.244" stop-color="#2EAD8A"/>
<stop offset="0.347" stop-color="#149373"/>
<stop offset="0.439" stop-color="#058464"/>
<stop offset="0.513" stop-color="#007F60"/>
</linearGradient>
</defs>
</svg>
