<svg width="200" height="400" viewBox="0 0 296 539" fill="none" xmlns="http://www.w3.org/2000/svg">
<path style="mix-blend-mode:multiply" opacity="0.15" d="M139.093 306.442C167.321 285.111 204.451 273.358 243.656 273.358C282.995 273.358 320.303 285.15 348.712 306.599C380.93 330.921 398.679 364.998 398.679 402.649C398.679 440.182 380.998 474.162 348.91 498.427C320.68 519.7 283.537 531.433 244.306 531.493H244.3C204.974 531.493 167.681 519.66 139.319 498.252C107.078 473.928 89.3314 439.815 89.3314 402.182C89.3279 364.647 107.014 330.67 139.093 306.442Z" fill="url(#paint0_linear)"/>
<path d="M56.2356 204.521C56.2356 204.364 56.1978 204.188 56.1978 204.032C56.1978 166.302 74.0032 132.149 106.297 107.8C134.715 86.3547 172.095 74.5426 211.566 74.5426C251.165 74.5426 288.727 86.3971 317.322 107.956C349.76 132.402 367.626 166.655 367.626 204.501C367.626 204.658 367.6 204.755 367.6 204.971C367.6 205.107 367.626 205.281 367.626 205.438C367.626 205.595 367.6 205.77 367.6 205.946C367.6 206.061 367.626 206.259 367.626 206.415C367.626 206.591 367.6 206.725 367.6 206.885C367.6 207.046 367.626 207.236 367.626 207.39C367.626 207.587 367.6 207.703 367.6 207.841C367.6 208.035 367.626 208.21 367.626 208.307C367.626 208.505 367.6 208.662 367.6 208.837C367.6 208.952 367.626 209.15 367.626 209.286C367.626 209.461 367.6 209.617 367.6 209.774C367.6 209.912 367.626 210.125 367.626 210.244C367.626 210.438 367.6 210.595 367.6 210.771C367.6 210.908 367.626 211.103 367.626 211.241C367.626 211.379 367.6 211.554 367.6 211.726C367.6 211.898 367.626 212.021 367.626 212.218C367.626 212.352 367.6 212.551 367.6 212.685C367.6 212.882 367.626 213.016 367.626 213.173C367.626 213.33 367.6 213.506 367.6 213.622C367.6 213.851 367.626 213.973 367.626 214.152C367.626 214.33 367.6 214.484 367.6 214.6C367.6 214.817 367.626 214.933 367.626 215.107C367.626 215.281 367.6 215.439 367.6 215.577C367.6 215.753 367.626 215.91 367.626 216.066C367.626 216.2 367.6 216.375 367.6 216.554C367.6 216.733 367.626 216.886 367.626 217.059C367.626 217.173 367.6 217.353 367.6 217.509C367.6 217.665 367.626 217.804 367.626 218.036C367.626 218.151 367.6 218.331 367.6 218.486C367.6 218.642 367.626 218.778 367.626 218.995C367.626 219.132 367.6 219.286 367.6 219.423C367.6 219.617 367.626 219.755 367.626 219.912C367.626 220.087 367.6 220.263 367.6 220.42C367.6 220.614 367.626 220.733 367.626 220.868C367.626 221.066 367.6 221.223 367.6 221.357C367.6 221.532 367.626 221.688 367.626 221.846C367.626 222.039 367.6 222.178 367.6 222.334C367.6 222.472 367.626 222.685 367.626 222.842C367.626 222.98 367.6 223.137 367.6 223.293C367.6 223.468 367.626 223.622 367.626 223.819C367.626 223.917 367.6 224.092 367.6 224.248C367.6 224.424 367.626 224.543 367.626 224.774C367.626 224.889 367.6 225.069 367.6 225.245C367.6 225.402 367.626 225.518 367.626 225.733C367.626 225.867 367.6 226.024 367.6 226.2C367.6 226.357 367.626 226.495 367.626 226.67C367.626 226.808 367.6 227.021 367.6 227.159C367.6 227.352 367.626 227.51 367.626 227.647C367.626 227.804 367.6 227.979 367.6 228.136C367.6 228.27 367.626 228.487 367.626 228.624C367.626 228.8 367.6 228.957 367.6 229.132C367.6 229.247 367.626 229.464 367.626 229.58C367.626 229.755 367.6 229.912 367.6 230.068C367.6 230.206 367.626 230.359 367.626 230.538C367.626 230.717 367.6 230.848 367.6 231.065C367.6 231.199 367.626 231.338 367.626 231.531C367.626 231.689 367.6 231.807 367.6 231.982C367.6 232.158 367.626 232.315 367.626 232.449C367.626 232.665 367.6 232.762 367.6 232.959C367.6 233.113 367.626 233.31 367.626 233.426C367.626 233.623 367.6 233.757 367.6 233.915C367.6 234.09 367.626 234.265 367.626 234.385C367.626 272.115 349.826 306.342 317.524 330.676C289.104 352.116 251.712 363.911 212.216 363.911H212.21C172.618 363.911 135.075 352.019 106.521 330.498C74.064 306.033 56.1989 271.76 56.1989 233.956C56.1989 233.799 56.2367 233.624 56.2367 233.467C56.2367 233.33 56.1989 233.173 56.1989 232.979C56.1989 232.841 56.2367 232.666 56.2367 232.49C56.2367 232.375 56.1989 232.177 56.1989 232.02C56.1989 231.845 56.2367 231.729 56.2367 231.531C56.2367 231.396 56.1989 231.222 56.1989 231.065C56.1989 230.889 56.2367 230.77 56.2367 230.538C56.2367 230.439 56.1989 230.263 56.1989 230.068C56.1989 229.911 56.2367 229.773 56.2367 229.639C56.2367 229.464 56.1989 229.285 56.1989 229.132C56.1989 228.957 56.2367 228.819 56.2367 228.662C56.2367 228.487 56.1989 228.331 56.1989 228.174C56.1989 228.016 56.2367 227.861 56.2367 227.667C56.2367 227.51 56.1989 227.354 56.1989 227.218C56.1989 227.043 56.2367 226.887 56.2367 226.711C56.2367 226.554 56.1989 226.357 56.1989 226.201C56.1989 226.086 56.2367 225.91 56.2367 225.734C56.2367 225.577 56.1989 225.402 56.1989 225.246C56.1989 225.108 56.2367 224.951 56.2367 224.776C56.2367 224.618 56.1989 224.484 56.1989 224.328C56.1989 224.153 56.2367 223.977 56.2367 223.82C56.2367 223.623 56.1989 223.507 56.1989 223.351C56.1989 223.176 56.2367 223 56.2367 222.885C56.2367 222.687 56.1989 222.53 56.1989 222.355C56.1989 222.179 56.2367 222.042 56.2367 221.926C56.2367 221.712 56.1989 221.575 56.1989 221.399C56.1989 221.262 56.2367 221.068 56.2367 220.929C56.2367 220.772 56.1989 220.616 56.1989 220.422C56.1989 220.308 56.2367 220.09 56.2367 219.974C56.2367 219.798 56.1989 219.62 56.1989 219.444C56.1989 219.329 56.2367 219.153 56.2367 218.996C56.2367 218.82 56.1989 218.723 56.1989 218.488C56.1989 218.373 56.2367 218.193 56.2367 218.037C56.2367 217.843 56.1989 217.706 56.1989 217.552C56.1989 217.373 56.2367 217.22 56.2367 217.082C56.2367 216.888 56.1989 216.75 56.1989 216.593C56.1989 216.418 56.2367 216.242 56.2367 216.123C56.2367 215.91 56.1989 215.772 56.1989 215.616C56.1989 215.441 56.2367 215.283 56.2367 215.168C56.2367 214.974 56.1989 214.817 56.1989 214.661C56.1989 214.485 56.2367 214.328 56.2367 214.191C56.2367 214.015 56.1989 213.859 56.1989 213.664C56.1989 213.549 56.2367 213.389 56.2367 213.194C56.2367 213.037 56.1989 212.884 56.1989 212.705C56.1989 212.571 56.2367 212.414 56.2367 212.239C56.2367 212.082 56.1989 211.963 56.1989 211.728C56.1989 211.614 56.2367 211.437 56.2367 211.262C56.2367 211.105 56.1989 210.929 56.1989 210.773C56.1989 210.598 56.2367 210.478 56.2367 210.306C56.2367 210.134 56.1989 209.975 56.1989 209.836C56.1989 209.679 56.2367 209.504 56.2367 209.348C56.2367 209.154 56.1989 208.997 56.1989 208.879C56.1989 208.703 56.2367 208.528 56.2367 208.371C56.2367 208.233 56.1989 208.039 56.1989 207.923C56.1989 207.726 56.2367 207.591 56.2367 207.393C56.2367 207.258 56.1989 207.061 56.1989 206.927C56.1989 206.751 56.2367 206.595 56.2367 206.419C56.2367 206.304 56.1989 206.124 56.1989 205.95C56.1989 205.792 56.2367 205.599 56.2367 205.442C56.2367 205.327 56.1989 205.147 56.1989 204.975C56.1989 204.803 56.2356 204.677 56.2356 204.521Z" fill="url(#paint1_linear)"/>
<path d="M106.296 107.8C134.714 86.3547 172.094 74.5426 211.565 74.5426C251.164 74.5426 288.726 86.3971 317.321 107.956C349.759 132.402 367.625 166.655 367.625 204.501C367.625 242.231 349.825 276.381 317.523 300.771C289.103 322.155 251.711 333.949 212.215 334.009H212.208C172.616 334.009 135.074 322.117 106.52 300.596C74.0629 276.149 56.1978 241.858 56.1978 204.034C56.1978 166.304 74.0032 132.144 106.296 107.8Z" fill="url(#paint2_linear)"/>
<g style="mix-blend-mode:overlay" opacity="0.85">
<path d="M68.295 204.031C68.295 237.736 84.7828 268.278 114.706 290.052C141.049 309.204 175.665 319.792 212.192 319.792C248.612 319.774 283.118 309.242 309.321 290.229C339.126 268.494 355.531 238.068 355.531 204.461C355.531 170.737 339.055 140.255 309.136 118.521C282.768 99.2872 248.112 88.7412 211.589 88.7412C175.197 88.7412 140.711 99.2459 114.501 118.366C84.7095 140.038 68.295 170.464 68.295 204.031ZM85.6558 204.053C85.6558 174.545 100.096 147.812 126.279 128.753C149.321 111.94 179.64 102.704 211.631 102.704C243.738 102.704 274.198 111.978 297.377 128.869C323.675 147.988 338.165 174.817 338.165 204.423C338.165 233.988 323.738 260.72 297.542 279.82C274.502 296.554 244.178 305.792 212.158 305.83C180.051 305.83 149.614 296.514 126.453 279.683C100.148 260.526 85.6558 233.691 85.6558 204.053Z" fill="white"/>
</g>
<g style="mix-blend-mode:overlay">
<path d="M106.52 300.596C135.078 322.117 172.616 334.009 212.208 334.009L212.222 337.229L212.215 334.009C251.711 333.949 289.103 322.155 317.523 300.771C349.416 276.694 367.094 243.087 367.538 205.93C367.55 206.556 367.625 207.161 367.625 207.784C367.625 245.514 349.825 279.668 317.523 304.057C289.103 325.44 251.711 337.233 212.215 337.292H212.208C172.616 337.292 135.074 325.4 106.52 303.881C74.0629 279.431 56.1978 245.141 56.1978 207.32C56.1978 206.696 56.2721 206.07 56.279 205.447C56.7275 242.698 74.4827 276.46 106.52 300.596Z" fill="white"/>
</g>
<path d="M263.206 240.317C264.29 235.416 262.62 230.319 258.069 225.32C265.212 226.733 272.539 226.965 279.757 226.008C286.455 225.108 292.921 222.94 298.808 219.622C307.968 214.31 311.501 207.983 309.264 200.544C307.46 194.258 301.363 187.774 291.181 181.096L308.024 171.371L287.902 159.788L271.351 169.319L258.949 162.172L275.519 152.623L255.266 140.926L238.708 150.475L228.378 144.519L215.702 137.195L195.654 148.749L208.349 156.089L133.457 199.303L120.78 191.979L100.745 203.54L123.752 216.858L114.577 222.133L134.824 233.831L143.992 228.519L154.103 234.379H154.109L156.389 235.685L147.221 240.979L167.326 252.577L176.633 247.208C190.396 254.841 203.464 259.236 215.69 260.586C229.009 261.97 240.807 259.783 250.805 254.002C257.931 249.901 262.017 245.313 263.206 240.317ZM261.554 186.733C264.743 188.417 267.634 190.614 270.111 193.235C271.464 194.336 272.51 195.769 273.146 197.394C274.396 200.636 272.619 203.546 268.108 206.184C263.492 208.793 258.145 209.809 252.894 209.075C250.404 208.816 247.956 208.244 245.608 207.374C241.708 206.143 237.963 204.465 234.448 202.375L224.265 196.499L211.878 189.329L207.883 187.027L234.932 171.423L249.039 179.584L249.095 179.528L251.382 180.856L261.554 186.733ZM210.633 239.83C205.816 239.152 201.134 237.728 196.755 235.611C194.976 234.733 193.168 233.834 191.25 232.723L176.39 224.169L174.096 222.841L174.145 222.803L160.039 214.638L188.459 198.238L192.443 200.585L204.853 207.71L219.726 216.305C221.638 217.418 223.167 218.451 224.685 219.488C234.333 226.323 234.9 232.022 226.687 236.768C221.847 239.602 216.177 240.682 210.634 239.825L210.633 239.83Z" fill="#85FFFC"/>
<g style="mix-blend-mode:multiply" opacity="0.21">
<path style="mix-blend-mode:multiply" opacity="0.21" d="M57.1324 201.65H55.3226V237.269H57.1324V201.65Z" fill="url(#paint3_linear)"/>
<path style="mix-blend-mode:multiply" opacity="0.21" d="M57.5224 211.179H55.7114V246.895H57.5224V211.179Z" fill="url(#paint4_linear)"/>
<path style="mix-blend-mode:multiply" opacity="0.21" d="M58.6727 220.534H56.8629V256.329H58.6727V220.534Z" fill="url(#paint5_linear)"/>
<path style="mix-blend-mode:multiply" opacity="0.21" d="M60.5731 229.672H58.7633V265.544H60.5731V229.672Z" fill="url(#paint6_linear)"/>
<path style="mix-blend-mode:multiply" opacity="0.21" d="M63.2201 238.596H61.4103V274.546H63.2201V238.596Z" fill="url(#paint7_linear)"/>
<path style="mix-blend-mode:multiply" opacity="0.21" d="M66.5851 247.267H64.7753V283.277H66.5851V247.267Z" fill="url(#paint8_linear)"/>
<path style="mix-blend-mode:multiply" opacity="0.21" d="M70.6692 255.644H68.8663V291.75H70.6692V255.644Z" fill="url(#paint9_linear)"/>
<path style="mix-blend-mode:multiply" opacity="0.21" d="M75.4701 263.749H73.6603V299.933H75.4701V263.749Z" fill="url(#paint10_linear)"/>
<path style="mix-blend-mode:multiply" opacity="0.21" d="M80.9523 271.54H79.1425V307.802H80.9523V271.54Z" fill="url(#paint11_linear)"/>
<path style="mix-blend-mode:multiply" opacity="0.21" d="M87.1133 278.999H85.3116V315.34H87.1133V278.999Z" fill="url(#paint12_linear)"/>
<path style="mix-blend-mode:multiply" opacity="0.21" d="M93.942 286.087H92.1402V322.507H93.942V286.087Z" fill="url(#paint13_linear)"/>
<path style="mix-blend-mode:multiply" opacity="0.21" d="M101.436 292.786H99.626V329.282H101.436V292.786Z" fill="url(#paint14_linear)"/>
<path style="mix-blend-mode:multiply" opacity="0.21" d="M109.035 298.702H107.225V335.277H109.035V298.702Z" fill="url(#paint15_linear)"/>
<path style="mix-blend-mode:multiply" opacity="0.21" d="M115.451 303.116H113.641V339.77H115.451V303.116Z" fill="url(#paint16_linear)"/>
<path style="mix-blend-mode:multiply" opacity="0.21" d="M122.138 307.216H120.327V343.947H122.138V307.216Z" fill="url(#paint17_linear)"/>
<path style="mix-blend-mode:multiply" opacity="0.21" d="M129.077 311.005H127.267V347.816H129.077V311.005Z" fill="url(#paint18_linear)"/>
<path style="mix-blend-mode:multiply" opacity="0.21" d="M136.242 314.461H134.439V351.368H136.242V314.461Z" fill="url(#paint19_linear)"/>
<path style="mix-blend-mode:multiply" opacity="0.21" d="M143.631 317.605H141.821V354.591H143.631V317.605Z" fill="url(#paint20_linear)"/>
<path style="mix-blend-mode:multiply" opacity="0.21" d="M151.221 320.417H149.411V357.461H151.221V320.417Z" fill="url(#paint21_linear)"/>
<path style="mix-blend-mode:multiply" opacity="0.21" d="M158.985 322.877H157.182V360.019H158.985V322.877Z" fill="url(#paint22_linear)"/>
<path style="mix-blend-mode:multiply" opacity="0.21" d="M166.919 325.007H165.117V362.226H166.919V325.007Z" fill="url(#paint23_linear)"/>
<path style="mix-blend-mode:multiply" opacity="0.21" d="M175.01 326.783H173.2V364.101H175.01V326.783Z" fill="url(#paint24_linear)"/>
<path style="mix-blend-mode:multiply" opacity="0.21" d="M183.245 328.229H181.435V365.605H183.245V328.229Z" fill="url(#paint25_linear)"/>
<path style="mix-blend-mode:multiply" opacity="0.21" d="M191.584 329.303H189.782V366.737H191.584V329.303Z" fill="url(#paint26_linear)"/>
<path style="mix-blend-mode:multiply" opacity="0.21" d="M200.041 330.006H198.239V367.537H200.041V330.006Z" fill="url(#paint27_linear)"/>
<path style="mix-blend-mode:multiply" opacity="0.21" d="M208.582 330.358H206.772V367.967H208.582V330.358Z" fill="url(#paint28_linear)"/>
<path style="mix-blend-mode:multiply" opacity="0.21" d="M217.189 330.319H215.38V368.007H217.189V330.319Z" fill="url(#paint29_linear)"/>
<path style="mix-blend-mode:multiply" opacity="0.21" d="M225.745 329.907H223.935V367.674H225.745V329.907Z" fill="url(#paint30_linear)"/>
<path style="mix-blend-mode:multiply" opacity="0.21" d="M234.212 329.126H232.402V366.971H234.212V329.126Z" fill="url(#paint31_linear)"/>
<path style="mix-blend-mode:multiply" opacity="0.21" d="M242.564 327.975H240.763V365.917H242.564V327.975Z" fill="url(#paint32_linear)"/>
<path style="mix-blend-mode:multiply" opacity="0.21" d="M250.799 326.491H248.997V364.491H250.799V326.491Z" fill="url(#paint33_linear)"/>
<path style="mix-blend-mode:multiply" opacity="0.21" d="M258.903 324.635H257.097V362.733H258.903V324.635Z" fill="url(#paint34_linear)"/>
<path style="mix-blend-mode:multiply" opacity="0.21" d="M266.847 322.448H265.042V360.605H266.847V322.448Z" fill="url(#paint35_linear)"/>
<path style="mix-blend-mode:multiply" opacity="0.21" d="M274.626 319.909H272.816V358.164H274.626V319.909Z" fill="url(#paint36_linear)"/>
<path style="mix-blend-mode:multiply" opacity="0.21" d="M282.214 317.039H280.404V355.352H282.214V317.039Z" fill="url(#paint37_linear)"/>
<path style="mix-blend-mode:multiply" opacity="0.21" d="M289.598 313.836H287.792V352.247H289.598V313.836Z" fill="url(#paint38_linear)"/>
<path style="mix-blend-mode:multiply" opacity="0.21" d="M296.77 310.302H294.964V348.791H296.77V310.302Z" fill="url(#paint39_linear)"/>
</g>
<defs>
<linearGradient id="paint0_linear" x1="89.3314" y1="402.425" x2="398.679" y2="402.425" gradientUnits="userSpaceOnUse">
<stop stop-color="#101213"/>
<stop offset="0.289" stop-color="#0D181A"/>
<stop offset="0.71" stop-color="#062A2D"/>
<stop offset="1" stop-color="#003B3F"/>
</linearGradient>
<linearGradient id="paint1_linear" x1="56.1978" y1="219.227" x2="367.626" y2="219.227" gradientUnits="userSpaceOnUse">
<stop offset="0.019" stop-color="#7FFFD6"/>
<stop offset="0.134" stop-color="#51D1AB"/>
<stop offset="0.244" stop-color="#2EAD8A"/>
<stop offset="0.347" stop-color="#149373"/>
<stop offset="0.439" stop-color="#058464"/>
<stop offset="0.513" stop-color="#007F60"/>
</linearGradient>
<linearGradient id="paint2_linear" x1="-8368.53" y1="122.803" x2="-8600.45" y2="326.312" gradientUnits="userSpaceOnUse">
<stop offset="0.019" stop-color="#7FFFD6"/>
<stop offset="0.134" stop-color="#51D1AB"/>
<stop offset="0.244" stop-color="#2EAD8A"/>
<stop offset="0.347" stop-color="#149373"/>
<stop offset="0.439" stop-color="#058464"/>
<stop offset="0.513" stop-color="#007F60"/>
</linearGradient>
<linearGradient id="paint3_linear" x1="56.2275" y1="307.509" x2="56.2275" y2="402.825" gradientUnits="userSpaceOnUse">
<stop offset="0.019" stop-color="#7FFFD6"/>
<stop offset="0.134" stop-color="#51D1AB"/>
<stop offset="0.244" stop-color="#2EAD8A"/>
<stop offset="0.347" stop-color="#149373"/>
<stop offset="0.439" stop-color="#058464"/>
<stop offset="0.513" stop-color="#007F60"/>
</linearGradient>
<linearGradient id="paint4_linear" x1="56.6169" y1="307.506" x2="56.6169" y2="402.832" gradientUnits="userSpaceOnUse">
<stop offset="0.019" stop-color="#7FFFD6"/>
<stop offset="0.134" stop-color="#51D1AB"/>
<stop offset="0.244" stop-color="#2EAD8A"/>
<stop offset="0.347" stop-color="#149373"/>
<stop offset="0.439" stop-color="#058464"/>
<stop offset="0.513" stop-color="#007F60"/>
</linearGradient>
<linearGradient id="paint5_linear" x1="57.7678" y1="307.516" x2="57.7678" y2="402.839" gradientUnits="userSpaceOnUse">
<stop offset="0.019" stop-color="#7FFFD6"/>
<stop offset="0.134" stop-color="#51D1AB"/>
<stop offset="0.244" stop-color="#2EAD8A"/>
<stop offset="0.347" stop-color="#149373"/>
<stop offset="0.439" stop-color="#058464"/>
<stop offset="0.513" stop-color="#007F60"/>
</linearGradient>
<linearGradient id="paint6_linear" x1="59.6682" y1="307.513" x2="59.6682" y2="402.822" gradientUnits="userSpaceOnUse">
<stop offset="0.019" stop-color="#7FFFD6"/>
<stop offset="0.134" stop-color="#51D1AB"/>
<stop offset="0.244" stop-color="#2EAD8A"/>
<stop offset="0.347" stop-color="#149373"/>
<stop offset="0.439" stop-color="#058464"/>
<stop offset="0.513" stop-color="#007F60"/>
</linearGradient>
<linearGradient id="paint7_linear" x1="62.3152" y1="307.512" x2="62.3152" y2="402.852" gradientUnits="userSpaceOnUse">
<stop offset="0.019" stop-color="#7FFFD6"/>
<stop offset="0.134" stop-color="#51D1AB"/>
<stop offset="0.244" stop-color="#2EAD8A"/>
<stop offset="0.347" stop-color="#149373"/>
<stop offset="0.439" stop-color="#058464"/>
<stop offset="0.513" stop-color="#007F60"/>
</linearGradient>
<linearGradient id="paint8_linear" x1="65.6802" y1="307.511" x2="65.6802" y2="402.829" gradientUnits="userSpaceOnUse">
<stop offset="0.019" stop-color="#7FFFD6"/>
<stop offset="0.134" stop-color="#51D1AB"/>
<stop offset="0.244" stop-color="#2EAD8A"/>
<stop offset="0.347" stop-color="#149373"/>
<stop offset="0.439" stop-color="#058464"/>
<stop offset="0.513" stop-color="#007F60"/>
</linearGradient>
<linearGradient id="paint9_linear" x1="69.7677" y1="307.493" x2="69.7677" y2="402.849" gradientUnits="userSpaceOnUse">
<stop offset="0.019" stop-color="#7FFFD6"/>
<stop offset="0.134" stop-color="#51D1AB"/>
<stop offset="0.244" stop-color="#2EAD8A"/>
<stop offset="0.347" stop-color="#149373"/>
<stop offset="0.439" stop-color="#058464"/>
<stop offset="0.513" stop-color="#007F60"/>
</linearGradient>
<linearGradient id="paint10_linear" x1="74.5652" y1="307.495" x2="74.5652" y2="402.84" gradientUnits="userSpaceOnUse">
<stop offset="0.019" stop-color="#7FFFD6"/>
<stop offset="0.134" stop-color="#51D1AB"/>
<stop offset="0.244" stop-color="#2EAD8A"/>
<stop offset="0.347" stop-color="#149373"/>
<stop offset="0.439" stop-color="#058464"/>
<stop offset="0.513" stop-color="#007F60"/>
</linearGradient>
<linearGradient id="paint11_linear" x1="80.0474" y1="307.512" x2="80.0474" y2="402.845" gradientUnits="userSpaceOnUse">
<stop offset="0.019" stop-color="#7FFFD6"/>
<stop offset="0.134" stop-color="#51D1AB"/>
<stop offset="0.244" stop-color="#2EAD8A"/>
<stop offset="0.347" stop-color="#149373"/>
<stop offset="0.439" stop-color="#058464"/>
<stop offset="0.513" stop-color="#007F60"/>
</linearGradient>
<linearGradient id="paint12_linear" x1="86.2125" y1="307.491" x2="86.2125" y2="402.85" gradientUnits="userSpaceOnUse">
<stop offset="0.019" stop-color="#7FFFD6"/>
<stop offset="0.134" stop-color="#51D1AB"/>
<stop offset="0.244" stop-color="#2EAD8A"/>
<stop offset="0.347" stop-color="#149373"/>
<stop offset="0.439" stop-color="#058464"/>
<stop offset="0.513" stop-color="#007F60"/>
</linearGradient>
<linearGradient id="paint13_linear" x1="93.0411" y1="307.502" x2="93.0411" y2="402.847" gradientUnits="userSpaceOnUse">
<stop offset="0.019" stop-color="#7FFFD6"/>
<stop offset="0.134" stop-color="#51D1AB"/>
<stop offset="0.244" stop-color="#2EAD8A"/>
<stop offset="0.347" stop-color="#149373"/>
<stop offset="0.439" stop-color="#058464"/>
<stop offset="0.513" stop-color="#007F60"/>
</linearGradient>
<linearGradient id="paint14_linear" x1="100.531" y1="307.494" x2="100.531" y2="402.821" gradientUnits="userSpaceOnUse">
<stop offset="0.019" stop-color="#7FFFD6"/>
<stop offset="0.134" stop-color="#51D1AB"/>
<stop offset="0.244" stop-color="#2EAD8A"/>
<stop offset="0.347" stop-color="#149373"/>
<stop offset="0.439" stop-color="#058464"/>
<stop offset="0.513" stop-color="#007F60"/>
</linearGradient>
<linearGradient id="paint15_linear" x1="108.13" y1="307.517" x2="108.13" y2="402.832" gradientUnits="userSpaceOnUse">
<stop offset="0.019" stop-color="#7FFFD6"/>
<stop offset="0.134" stop-color="#51D1AB"/>
<stop offset="0.244" stop-color="#2EAD8A"/>
<stop offset="0.347" stop-color="#149373"/>
<stop offset="0.439" stop-color="#058464"/>
<stop offset="0.513" stop-color="#007F60"/>
</linearGradient>
<linearGradient id="paint16_linear" x1="114.546" y1="307.515" x2="114.546" y2="402.85" gradientUnits="userSpaceOnUse">
<stop offset="0.019" stop-color="#7FFFD6"/>
<stop offset="0.134" stop-color="#51D1AB"/>
<stop offset="0.244" stop-color="#2EAD8A"/>
<stop offset="0.347" stop-color="#149373"/>
<stop offset="0.439" stop-color="#058464"/>
<stop offset="0.513" stop-color="#007F60"/>
</linearGradient>
<linearGradient id="paint17_linear" x1="121.233" y1="307.51" x2="121.233" y2="402.827" gradientUnits="userSpaceOnUse">
<stop offset="0.019" stop-color="#7FFFD6"/>
<stop offset="0.134" stop-color="#51D1AB"/>
<stop offset="0.244" stop-color="#2EAD8A"/>
<stop offset="0.347" stop-color="#149373"/>
<stop offset="0.439" stop-color="#058464"/>
<stop offset="0.513" stop-color="#007F60"/>
</linearGradient>
<linearGradient id="paint18_linear" x1="128.172" y1="307.508" x2="128.172" y2="402.847" gradientUnits="userSpaceOnUse">
<stop offset="0.019" stop-color="#7FFFD6"/>
<stop offset="0.134" stop-color="#51D1AB"/>
<stop offset="0.244" stop-color="#2EAD8A"/>
<stop offset="0.347" stop-color="#149373"/>
<stop offset="0.439" stop-color="#058464"/>
<stop offset="0.513" stop-color="#007F60"/>
</linearGradient>
<linearGradient id="paint19_linear" x1="135.34" y1="307.485" x2="135.34" y2="402.855" gradientUnits="userSpaceOnUse">
<stop offset="0.019" stop-color="#7FFFD6"/>
<stop offset="0.134" stop-color="#51D1AB"/>
<stop offset="0.244" stop-color="#2EAD8A"/>
<stop offset="0.347" stop-color="#149373"/>
<stop offset="0.439" stop-color="#058464"/>
<stop offset="0.513" stop-color="#007F60"/>
</linearGradient>
<linearGradient id="paint20_linear" x1="142.726" y1="307.508" x2="142.726" y2="402.82" gradientUnits="userSpaceOnUse">
<stop offset="0.019" stop-color="#7FFFD6"/>
<stop offset="0.134" stop-color="#51D1AB"/>
<stop offset="0.244" stop-color="#2EAD8A"/>
<stop offset="0.347" stop-color="#149373"/>
<stop offset="0.439" stop-color="#058464"/>
<stop offset="0.513" stop-color="#007F60"/>
</linearGradient>
<linearGradient id="paint21_linear" x1="150.316" y1="307.489" x2="150.316" y2="402.84" gradientUnits="userSpaceOnUse">
<stop offset="0.019" stop-color="#7FFFD6"/>
<stop offset="0.134" stop-color="#51D1AB"/>
<stop offset="0.244" stop-color="#2EAD8A"/>
<stop offset="0.347" stop-color="#149373"/>
<stop offset="0.439" stop-color="#058464"/>
<stop offset="0.513" stop-color="#007F60"/>
</linearGradient>
<linearGradient id="paint22_linear" x1="158.083" y1="307.5" x2="158.083" y2="402.843" gradientUnits="userSpaceOnUse">
<stop offset="0.019" stop-color="#7FFFD6"/>
<stop offset="0.134" stop-color="#51D1AB"/>
<stop offset="0.244" stop-color="#2EAD8A"/>
<stop offset="0.347" stop-color="#149373"/>
<stop offset="0.439" stop-color="#058464"/>
<stop offset="0.513" stop-color="#007F60"/>
</linearGradient>
<linearGradient id="paint23_linear" x1="166.018" y1="307.513" x2="166.018" y2="402.833" gradientUnits="userSpaceOnUse">
<stop offset="0.019" stop-color="#7FFFD6"/>
<stop offset="0.134" stop-color="#51D1AB"/>
<stop offset="0.244" stop-color="#2EAD8A"/>
<stop offset="0.347" stop-color="#149373"/>
<stop offset="0.439" stop-color="#058464"/>
<stop offset="0.513" stop-color="#007F60"/>
</linearGradient>
<linearGradient id="paint24_linear" x1="174.105" y1="307.49" x2="174.105" y2="402.838" gradientUnits="userSpaceOnUse">
<stop offset="0.019" stop-color="#7FFFD6"/>
<stop offset="0.134" stop-color="#51D1AB"/>
<stop offset="0.244" stop-color="#2EAD8A"/>
<stop offset="0.347" stop-color="#149373"/>
<stop offset="0.439" stop-color="#058464"/>
<stop offset="0.513" stop-color="#007F60"/>
</linearGradient>
<linearGradient id="paint25_linear" x1="182.34" y1="307.486" x2="182.34" y2="402.831" gradientUnits="userSpaceOnUse">
<stop offset="0.019" stop-color="#7FFFD6"/>
<stop offset="0.134" stop-color="#51D1AB"/>
<stop offset="0.244" stop-color="#2EAD8A"/>
<stop offset="0.347" stop-color="#149373"/>
<stop offset="0.439" stop-color="#058464"/>
<stop offset="0.513" stop-color="#007F60"/>
</linearGradient>
<linearGradient id="paint26_linear" x1="190.683" y1="307.516" x2="190.683" y2="402.823" gradientUnits="userSpaceOnUse">
<stop offset="0.019" stop-color="#7FFFD6"/>
<stop offset="0.134" stop-color="#51D1AB"/>
<stop offset="0.244" stop-color="#2EAD8A"/>
<stop offset="0.347" stop-color="#149373"/>
<stop offset="0.439" stop-color="#058464"/>
<stop offset="0.513" stop-color="#007F60"/>
</linearGradient>
<linearGradient id="paint27_linear" x1="199.14" y1="307.487" x2="199.14" y2="402.854" gradientUnits="userSpaceOnUse">
<stop offset="0.019" stop-color="#7FFFD6"/>
<stop offset="0.134" stop-color="#51D1AB"/>
<stop offset="0.244" stop-color="#2EAD8A"/>
<stop offset="0.347" stop-color="#149373"/>
<stop offset="0.439" stop-color="#058464"/>
<stop offset="0.513" stop-color="#007F60"/>
</linearGradient>
<linearGradient id="paint28_linear" x1="207.677" y1="307.491" x2="207.677" y2="402.831" gradientUnits="userSpaceOnUse">
<stop offset="0.019" stop-color="#7FFFD6"/>
<stop offset="0.134" stop-color="#51D1AB"/>
<stop offset="0.244" stop-color="#2EAD8A"/>
<stop offset="0.347" stop-color="#149373"/>
<stop offset="0.439" stop-color="#058464"/>
<stop offset="0.513" stop-color="#007F60"/>
</linearGradient>
<linearGradient id="paint29_linear" x1="216.284" y1="307.517" x2="216.284" y2="402.832" gradientUnits="userSpaceOnUse">
<stop offset="0.019" stop-color="#7FFFD6"/>
<stop offset="0.134" stop-color="#51D1AB"/>
<stop offset="0.244" stop-color="#2EAD8A"/>
<stop offset="0.347" stop-color="#149373"/>
<stop offset="0.439" stop-color="#058464"/>
<stop offset="0.513" stop-color="#007F60"/>
</linearGradient>
<linearGradient id="paint30_linear" x1="224.84" y1="307.511" x2="224.84" y2="402.834" gradientUnits="userSpaceOnUse">
<stop offset="0.019" stop-color="#7FFFD6"/>
<stop offset="0.134" stop-color="#51D1AB"/>
<stop offset="0.244" stop-color="#2EAD8A"/>
<stop offset="0.347" stop-color="#149373"/>
<stop offset="0.439" stop-color="#058464"/>
<stop offset="0.513" stop-color="#007F60"/>
</linearGradient>
<linearGradient id="paint31_linear" x1="233.307" y1="307.517" x2="233.307" y2="402.847" gradientUnits="userSpaceOnUse">
<stop offset="0.019" stop-color="#7FFFD6"/>
<stop offset="0.134" stop-color="#51D1AB"/>
<stop offset="0.244" stop-color="#2EAD8A"/>
<stop offset="0.347" stop-color="#149373"/>
<stop offset="0.439" stop-color="#058464"/>
<stop offset="0.513" stop-color="#007F60"/>
</linearGradient>
<linearGradient id="paint32_linear" x1="241.663" y1="307.486" x2="241.663" y2="402.834" gradientUnits="userSpaceOnUse">
<stop offset="0.019" stop-color="#7FFFD6"/>
<stop offset="0.134" stop-color="#51D1AB"/>
<stop offset="0.244" stop-color="#2EAD8A"/>
<stop offset="0.347" stop-color="#149373"/>
<stop offset="0.439" stop-color="#058464"/>
<stop offset="0.513" stop-color="#007F60"/>
</linearGradient>
<linearGradient id="paint33_linear" x1="249.898" y1="307.49" x2="249.898" y2="402.834" gradientUnits="userSpaceOnUse">
<stop offset="0.019" stop-color="#7FFFD6"/>
<stop offset="0.134" stop-color="#51D1AB"/>
<stop offset="0.244" stop-color="#2EAD8A"/>
<stop offset="0.347" stop-color="#149373"/>
<stop offset="0.439" stop-color="#058464"/>
<stop offset="0.513" stop-color="#007F60"/>
</linearGradient>
<linearGradient id="paint34_linear" x1="258" y1="307.491" x2="258" y2="402.851" gradientUnits="userSpaceOnUse">
<stop offset="0.019" stop-color="#7FFFD6"/>
<stop offset="0.134" stop-color="#51D1AB"/>
<stop offset="0.244" stop-color="#2EAD8A"/>
<stop offset="0.347" stop-color="#149373"/>
<stop offset="0.439" stop-color="#058464"/>
<stop offset="0.513" stop-color="#007F60"/>
</linearGradient>
<linearGradient id="paint35_linear" x1="265.945" y1="307.491" x2="265.945" y2="402.844" gradientUnits="userSpaceOnUse">
<stop offset="0.019" stop-color="#7FFFD6"/>
<stop offset="0.134" stop-color="#51D1AB"/>
<stop offset="0.244" stop-color="#2EAD8A"/>
<stop offset="0.347" stop-color="#149373"/>
<stop offset="0.439" stop-color="#058464"/>
<stop offset="0.513" stop-color="#007F60"/>
</linearGradient>
<linearGradient id="paint36_linear" x1="273.721" y1="307.514" x2="273.721" y2="402.846" gradientUnits="userSpaceOnUse">
<stop offset="0.019" stop-color="#7FFFD6"/>
<stop offset="0.134" stop-color="#51D1AB"/>
<stop offset="0.244" stop-color="#2EAD8A"/>
<stop offset="0.347" stop-color="#149373"/>
<stop offset="0.439" stop-color="#058464"/>
<stop offset="0.513" stop-color="#007F60"/>
</linearGradient>
<linearGradient id="paint37_linear" x1="281.309" y1="307.499" x2="281.309" y2="402.823" gradientUnits="userSpaceOnUse">
<stop offset="0.019" stop-color="#7FFFD6"/>
<stop offset="0.134" stop-color="#51D1AB"/>
<stop offset="0.244" stop-color="#2EAD8A"/>
<stop offset="0.347" stop-color="#149373"/>
<stop offset="0.439" stop-color="#058464"/>
<stop offset="0.513" stop-color="#007F60"/>
</linearGradient>
<linearGradient id="paint38_linear" x1="288.695" y1="307.498" x2="288.695" y2="402.834" gradientUnits="userSpaceOnUse">
<stop offset="0.019" stop-color="#7FFFD6"/>
<stop offset="0.134" stop-color="#51D1AB"/>
<stop offset="0.244" stop-color="#2EAD8A"/>
<stop offset="0.347" stop-color="#149373"/>
<stop offset="0.439" stop-color="#058464"/>
<stop offset="0.513" stop-color="#007F60"/>
</linearGradient>
<linearGradient id="paint39_linear" x1="295.867" y1="307.493" x2="295.867" y2="402.83" gradientUnits="userSpaceOnUse">
<stop offset="0.019" stop-color="#7FFFD6"/>
<stop offset="0.134" stop-color="#51D1AB"/>
<stop offset="0.244" stop-color="#2EAD8A"/>
<stop offset="0.347" stop-color="#149373"/>
<stop offset="0.439" stop-color="#058464"/>
<stop offset="0.513" stop-color="#007F60"/>
</linearGradient>
</defs>
</svg>
