<svg width="200" height="220" viewBox="0 0 212 282" fill="none" xmlns="http://www.w3.org/2000/svg">
<g clip-path="url(#clip0)">
<path style="mix-blend-mode:multiply" opacity="0.15" d="M46.6332 170.804C64.162 160.661 87.2178 155.071 111.564 155.071C135.989 155.071 159.158 160.679 176.796 170.878C196.803 182.443 207.825 198.647 207.825 216.551C207.825 234.399 196.845 250.557 176.921 262.092C159.392 272.208 136.327 277.787 111.967 277.815H111.963C87.5431 277.815 64.3861 272.188 46.7735 262.009C26.7549 250.443 15.7333 234.221 15.7333 216.326C15.7314 198.478 26.7148 182.324 46.6332 170.804Z" fill="url(#paint0_linear)"/>
<path d="M0.0237341 61.8066C0.0237341 61.7321 6.10352e-05 61.6488 6.10352e-05 61.5742C6.10352e-05 43.6347 11.039 27.3928 31.0607 15.8147C48.6789 5.61837 71.8537 0.000610352 96.3258 0.000610352C120.876 0.000610352 144.164 5.63843 161.893 15.8892C182.003 27.5137 193.081 43.802 193.081 61.7979C193.081 61.8724 193.064 61.9188 193.064 62.0215C193.064 62.0841 193.081 62.1687 193.081 62.2433C193.081 62.3178 193.064 62.4011 193.064 62.4844C193.064 62.5396 193.081 62.6335 193.081 62.7081C193.081 62.7826 193.064 62.8553 193.064 62.9317C193.064 63.0081 193.081 63.0983 193.081 63.1716C193.081 63.2656 193.064 63.3207 193.064 63.3858C193.064 63.4779 193.081 63.5612 193.081 63.6076C193.081 63.7016 193.064 63.7761 193.064 63.8582C193.064 63.9133 193.081 64.0073 193.081 64.0712C193.081 64.1545 193.064 64.229 193.064 64.3036C193.064 64.3781 193.081 64.4702 193.081 64.5272C193.081 64.6193 193.064 64.6938 193.064 64.7778C193.064 64.8404 193.081 64.9356 193.081 65.0014C193.081 65.0672 193.064 65.1505 193.064 65.2319C193.064 65.3134 193.081 65.3716 193.081 65.4656C193.081 65.5282 193.064 65.6234 193.064 65.6873C193.064 65.7813 193.081 65.8452 193.081 65.9197C193.081 65.9943 193.064 66.0776 193.064 66.1327C193.064 66.2442 193.081 66.2994 193.081 66.3833C193.081 66.4672 193.064 66.5412 193.064 66.5963C193.064 66.699 193.081 66.7541 193.081 66.8375C193.081 66.9208 193.064 66.9953 193.064 67.0611C193.064 67.1444 193.081 67.2189 193.081 67.2935C193.081 67.3561 193.064 67.4407 193.064 67.5259C193.064 67.6111 193.081 67.6837 193.081 67.7658C193.081 67.8222 193.064 67.9055 193.064 67.98C193.064 68.0546 193.081 68.1197 193.081 68.2306C193.081 68.287 193.064 68.3709 193.064 68.4448C193.064 68.5188 193.081 68.5833 193.081 68.686C193.081 68.7487 193.064 68.8245 193.064 68.8902C193.064 68.9823 193.081 69.0481 193.081 69.1226C193.081 69.1972 193.064 69.2893 193.064 69.3638C193.064 69.4559 193.081 69.5129 193.081 69.5768C193.081 69.6708 193.064 69.7453 193.064 69.8092C193.064 69.8925 193.081 69.9671 193.081 70.0416C193.081 70.1337 193.064 70.1995 193.064 70.274C193.064 70.3485 193.081 70.4406 193.081 70.5152C193.081 70.5897 193.064 70.6549 193.064 70.7294C193.064 70.804 193.081 70.886 193.081 70.98C193.081 71.0263 193.064 71.1097 193.064 71.1842C193.064 71.2587 193.081 71.3239 193.081 71.4348C193.081 71.4911 193.064 71.5751 193.064 71.6584C193.064 71.7417 193.081 71.7881 193.081 71.8908C193.081 71.9534 193.064 72.0292 193.064 72.1126C193.064 72.1959 193.081 72.2522 193.081 72.3362C193.081 72.3988 193.064 72.5028 193.064 72.5686C193.064 72.6607 193.081 72.7352 193.081 72.801C193.081 72.8668 193.064 72.9589 193.064 73.0334C193.064 73.096 193.081 73.2 193.081 73.2658C193.081 73.3491 193.064 73.4237 193.064 73.507C193.064 73.5621 193.081 73.6648 193.081 73.72C193.081 73.8033 193.064 73.8778 193.064 73.9524C193.064 74.0269 193.081 74.0908 193.081 74.176C193.081 74.2612 193.064 74.3232 193.064 74.4266C193.064 74.4892 193.081 74.5562 193.081 74.6483C193.081 74.7229 193.064 74.7792 193.064 74.8625C193.064 74.9459 193.081 75.0204 193.081 75.0843C193.081 75.187 193.064 75.2334 193.064 75.3267C193.064 75.4 193.081 75.4934 193.081 75.5485C193.081 75.6424 193.064 75.7063 193.064 75.7809C193.064 75.8554 193.081 75.9475 193.081 76.0045C193.081 93.944 182.045 110.222 162.018 121.793C144.399 131.988 121.216 137.597 96.7291 137.597H96.7249C72.1783 137.597 48.9022 131.942 31.1995 121.708C11.0765 110.075 0.000671954 93.778 0.000671954 75.8009C0.000671954 75.7264 0.0243451 75.6431 0.0243451 75.5685C0.0243451 75.494 0.000671954 75.4288 0.000671954 75.3361C0.000671954 75.2735 0.0243451 75.187 0.0243451 75.1037C0.0243451 75.0486 0.000671954 74.9546 0.000671954 74.8801C0.000671954 74.8055 0.0243451 74.7417 0.0243451 74.6477C0.0243451 74.585 0.000671954 74.5005 0.000671954 74.4259C0.000671954 74.3514 0.0243451 74.2856 0.0243451 74.1754C0.0243451 74.1278 0.000671954 74.0444 0.000671954 73.9517C0.000671954 73.8772 0.0243451 73.812 0.0243451 73.7475C0.0243451 73.6642 0.000671954 73.579 0.000671954 73.5064C0.000671954 73.423 0.0243451 73.3573 0.0243451 73.2827C0.0243451 73.2082 0.000671954 73.1249 0.000671954 73.0503C0.000671954 72.9758 0.0243451 72.9012 0.0243451 72.8091C0.0243451 72.7346 0.000671954 72.66 0.000671954 72.5962C0.000671954 72.5128 0.0243451 72.4383 0.0243451 72.355C0.0243451 72.2717 0.000671954 72.1865 0.000671954 72.1119C0.000671954 72.0568 0.0243451 71.9735 0.0243451 71.8902C0.0243451 71.8069 0.000671954 71.7323 0.000671954 71.6578C0.000671954 71.5832 0.0243451 71.5181 0.0243451 71.4341C0.0243451 71.3502 0.000671954 71.2957 0.000671954 71.2212C0.000671954 71.1466 0.0243451 71.0545 0.0243451 70.98C0.0243451 70.886 0.000671954 70.8309 0.000671954 70.757C0.000671954 70.6831 0.0243451 70.5903 0.0243451 70.5352C0.0243451 70.4413 0.000671954 70.3667 0.000671954 70.2847C0.000671954 70.2026 0.0243451 70.1356 0.0243451 70.0804C0.0243451 69.979 0.000671954 69.9138 0.000671954 69.8299C0.000671954 69.7672 0.0243451 69.672 0.0243451 69.6062C0.0243451 69.5405 0.000671954 69.4571 0.000671954 69.3651C0.000671954 69.3099 0.0243451 69.2072 0.0243451 69.1521C0.0243451 69.0688 0.000671954 68.9836 0.000671954 68.9015C0.000671954 68.8464 0.0243451 68.7631 0.0243451 68.6885C0.0243451 68.614 0.000671954 68.5589 0.000671954 68.4473C0.000671954 68.391 0.0243451 68.3077 0.0243451 68.2331C0.0243451 68.141 0.000671954 68.0753 0.000671954 68.0026C0.000671954 67.918 0.0243451 67.8447 0.0243451 67.779C0.0243451 67.6869 0.000671954 67.6211 0.000671954 67.5466C0.000671954 67.472 0.0243451 67.3799 0.0243451 67.3229C0.0243451 67.2215 0.000671954 67.1563 0.000671954 67.0817C0.000671954 67.0072 0.0243451 66.9239 0.0243451 66.8688C0.0243451 66.7767 0.000671954 66.7021 0.000671954 66.6276C0.000671954 66.553 0.0243451 66.4697 0.0243451 66.404C0.0243451 66.3206 0.000671954 66.2461 0.000671954 66.1534C0.000671954 66.097 0.0243451 66.0225 0.0243451 65.9298C0.0243451 65.8552 0.000671954 65.7826 0.000671954 65.6974C0.000671954 65.6347 0.0243451 65.5589 0.0243451 65.4756C0.0243451 65.3923 0.000671954 65.3447 0.000671954 65.2332C0.000671954 65.1781 0.0243451 65.0947 0.0243451 65.0114C0.0243451 64.9281 0.000671954 64.8536 0.000671954 64.779C0.000671954 64.7045 0.0243451 64.6387 0.0243451 64.5573C0.0243451 64.4758 0.000671954 64.3994 0.000671954 64.3336C0.000671954 64.2678 0.0243451 64.1758 0.0243451 64.1012C0.0243451 64.0091 0.000671954 63.9346 0.000671954 63.8782C0.000671954 63.7949 0.0243451 63.7116 0.0243451 63.637C0.0243451 63.5625 0.000671954 63.4792 0.000671954 63.4241C0.000671954 63.3301 0.0243451 63.2662 0.0243451 63.1735C0.0243451 63.1108 0.000671954 63.0156 0.000671954 62.9517C0.000671954 62.8684 0.0243451 62.7939 0.0243451 62.7106C0.0243451 62.6542 0.000671954 62.5709 0.000671954 62.4869C0.000671954 62.403 0.0243451 62.3203 0.0243451 62.2458C0.0243451 62.1907 0.000671954 62.1061 0.000671954 62.024C0.000671954 61.942 0.0237341 61.8812 0.0237341 61.8066Z" fill="url(#paint1_linear)"/>
<path d="M31.0607 15.814C48.6789 5.61776 71.8537 0 96.3258 0C120.876 0 144.164 5.63778 161.893 15.8886C182.003 27.5131 193.081 43.8014 193.081 61.7973C193.081 79.7368 182.045 95.9774 162.018 107.575C144.399 117.743 121.216 123.352 96.7291 123.38H96.7249C72.1783 123.38 48.9022 117.725 31.1995 107.492C11.0765 95.8672 0.000671413 79.5613 0.000671413 61.5749C4.58323e-05 43.6347 11.039 27.3922 31.0607 15.814Z" fill="url(#paint2_linear)"/>
<g style="mix-blend-mode:overlay" opacity="0.85">
<path d="M5.74408 61.5742C5.74408 77.6013 16.1676 92.1243 35.0839 102.48C51.7381 111.588 73.6196 116.621 96.7136 116.621C119.735 116.612 141.553 111.607 158.12 102.563C176.962 92.227 187.335 77.7604 187.335 61.7791C187.335 45.7426 176.919 31.2478 158.004 20.9131C141.333 11.7673 119.423 6.7522 96.3333 6.7522C73.3263 6.7522 51.5248 11.7473 34.9538 20.8386C16.1219 31.1445 5.74408 45.6124 5.74408 61.5742ZM16.72 61.5849C16.72 47.553 25.8497 34.8416 42.402 25.7785C56.9699 17.7835 76.1376 13.391 96.3626 13.391C116.661 13.391 135.918 17.801 150.572 25.833C167.198 34.9243 176.359 47.6827 176.359 61.7603C176.359 75.8185 167.238 88.5305 150.676 97.613C136.11 105.569 116.939 109.963 96.6962 109.98C76.3979 109.98 57.1557 105.551 42.5121 97.5472C25.8816 88.4384 16.72 75.6788 16.72 61.5849Z" fill="white"/>
</g>
<g style="mix-blend-mode:overlay">
<path d="M31.1989 107.494C48.9029 117.727 72.1777 123.382 96.7243 123.382L96.733 124.913L96.7285 123.382C121.215 123.354 144.398 117.744 162.017 107.577C181.79 96.1277 192.751 80.147 193.026 62.4744C193.033 62.7725 193.079 63.0595 193.079 63.3564C193.079 81.2959 182.044 97.5378 162.017 109.135C144.397 119.303 121.214 124.911 96.7279 124.939H96.7236C72.1771 124.939 48.901 119.284 31.1983 109.052C11.0753 97.4257 -0.000549316 81.1199 -0.000549316 63.1353C-0.000549316 62.839 0.0456398 62.5408 0.0493933 62.2445C0.328402 79.9604 11.3361 96.0143 31.1989 107.494Z" fill="white"/>
</g>
<path d="M117.988 78.8266C118.503 76.4957 117.71 74.0727 115.549 71.6954C118.941 72.3663 122.419 72.4759 125.847 72.0199C129.027 71.5916 132.097 70.5609 134.893 68.983C139.242 66.4572 140.92 63.4485 139.858 59.9111C139.002 56.9218 136.105 53.8392 131.271 50.6632L139.269 46.039L129.714 40.5315L121.855 45.0636L115.966 41.6647L123.834 37.1237L114.217 31.5623L106.354 36.1033L101.45 33.2706L95.4298 29.7883L85.9105 35.2858L91.9386 38.7769L56.3755 59.3235L50.3555 55.8412L40.8424 61.3387L51.7669 67.6719L47.4122 70.1776L57.0267 75.7402L61.3801 73.2145L66.1815 76.0014L67.2643 76.6222L62.9109 79.1392L72.4573 84.6517L76.8764 82.099C83.4131 85.7285 89.617 87.8183 95.4224 88.4604C101.746 89.1187 107.348 88.0789 112.096 85.3282C115.48 83.3857 117.422 81.2038 117.988 78.8266ZM117.205 53.3462C118.719 54.1474 120.091 55.1919 121.267 56.4382C121.909 56.9625 122.404 57.6439 122.706 58.4165C123.299 59.9581 122.456 61.3419 120.314 62.5953C118.122 63.836 115.583 64.3193 113.089 63.9703C111.907 63.8472 110.745 63.5756 109.63 63.1616C107.778 62.5761 106 61.7784 104.331 60.7843L99.4949 57.9905L93.6107 54.5815L91.7139 53.4865L104.558 46.0665L111.251 49.9504L111.278 49.9234L112.364 50.5549L117.205 53.3462ZM93.0245 78.5942C90.7365 78.2725 88.5125 77.5963 86.4322 76.5896C85.5871 76.1724 84.7287 75.7452 83.816 75.2165L76.7594 71.1491L75.6697 70.5177L75.6935 70.4996L68.9954 66.6157L82.4904 58.8155L84.3821 59.9312L90.2751 63.3195L97.3373 67.4063C98.245 67.935 98.9689 68.4267 99.6921 68.9197C104.273 72.1696 104.542 74.8801 100.642 77.1365C98.3456 78.485 95.6552 79 93.0239 78.5948L93.0245 78.5942Z" fill="#85FFFC"/>
<g style="mix-blend-mode:multiply" opacity="0.21">
<path style="mix-blend-mode:multiply" opacity="0.21" d="M0.579324 60.441H-0.542969V77.3783H0.579324V60.441Z" fill="url(#paint3_linear)"/>
<path style="mix-blend-mode:multiply" opacity="0.21" d="M0.820168 64.9726H-0.302124V81.9562H0.820168V64.9726Z" fill="url(#paint4_linear)"/>
<path style="mix-blend-mode:multiply" opacity="0.21" d="M1.5339 69.4208H0.412231V86.442H1.5339V69.4208Z" fill="url(#paint5_linear)"/>
<path style="mix-blend-mode:multiply" opacity="0.21" d="M2.71194 73.7663H1.59027V90.8238H2.71194V73.7663Z" fill="url(#paint6_linear)"/>
<path style="mix-blend-mode:multiply" opacity="0.21" d="M4.35287 78.0096H3.2312V95.1047H4.35287V78.0096Z" fill="url(#paint7_linear)"/>
<path style="mix-blend-mode:multiply" opacity="0.21" d="M6.4398 82.1328H5.3175V99.2561H6.4398V82.1328Z" fill="url(#paint8_linear)"/>
<path style="mix-blend-mode:multiply" opacity="0.21" d="M8.9721 86.1163H7.85419V103.285H8.9721V86.1163Z" fill="url(#paint9_linear)"/>
<path style="mix-blend-mode:multiply" opacity="0.21" d="M11.948 89.97H10.8264V107.176H11.948V89.97Z" fill="url(#paint10_linear)"/>
<path style="mix-blend-mode:multiply" opacity="0.21" d="M15.3468 93.6753H14.2251V110.919H15.3468V93.6753Z" fill="url(#paint11_linear)"/>
<path style="mix-blend-mode:multiply" opacity="0.21" d="M19.1672 97.2221H18.0499V114.503H19.1672V97.2221Z" fill="url(#paint12_linear)"/>
<path style="mix-blend-mode:multiply" opacity="0.21" d="M23.4005 100.593H22.2832V117.911H23.4005V100.593Z" fill="url(#paint13_linear)"/>
<path style="mix-blend-mode:multiply" opacity="0.21" d="M28.0461 103.778H26.9244V121.133H28.0461V103.778Z" fill="url(#paint14_linear)"/>
<path style="mix-blend-mode:multiply" opacity="0.21" d="M32.7573 106.591H31.6357V123.984H32.7573V106.591Z" fill="url(#paint15_linear)"/>
<path style="mix-blend-mode:multiply" opacity="0.21" d="M36.7354 108.69H35.6137V126.119H36.7354V108.69Z" fill="url(#paint16_linear)"/>
<path style="mix-blend-mode:multiply" opacity="0.21" d="M40.8811 110.64H39.7589V128.107H40.8811V110.64Z" fill="url(#paint17_linear)"/>
<path style="mix-blend-mode:multiply" opacity="0.21" d="M45.1833 112.441H44.0616V129.945H45.1833V112.441Z" fill="url(#paint18_linear)"/>
<path style="mix-blend-mode:multiply" opacity="0.21" d="M49.6261 114.085H48.5082V131.635H49.6261V114.085Z" fill="url(#paint19_linear)"/>
<path style="mix-blend-mode:multiply" opacity="0.21" d="M54.206 115.58H53.0844V133.167H54.206V115.58Z" fill="url(#paint20_linear)"/>
<path style="mix-blend-mode:multiply" opacity="0.21" d="M58.9123 116.917H57.7906V134.532H58.9123V116.917Z" fill="url(#paint21_linear)"/>
<path style="mix-blend-mode:multiply" opacity="0.21" d="M63.7261 118.087H62.6082V135.749H63.7261V118.087Z" fill="url(#paint22_linear)"/>
<path style="mix-blend-mode:multiply" opacity="0.21" d="M68.645 119.099H67.5277V136.798H68.645V119.099Z" fill="url(#paint23_linear)"/>
<path style="mix-blend-mode:multiply" opacity="0.21" d="M73.6615 119.944H72.5392V137.69H73.6615V119.944Z" fill="url(#paint24_linear)"/>
<path style="mix-blend-mode:multiply" opacity="0.21" d="M78.7669 120.632H77.6447V138.404H78.7669V120.632Z" fill="url(#paint25_linear)"/>
<path style="mix-blend-mode:multiply" opacity="0.21" d="M83.9368 121.142H82.8195V138.942H83.9368V121.142Z" fill="url(#paint26_linear)"/>
<path style="mix-blend-mode:multiply" opacity="0.21" d="M89.1804 121.477H88.0631V139.324H89.1804V121.477Z" fill="url(#paint27_linear)"/>
<path style="mix-blend-mode:multiply" opacity="0.21" d="M94.4753 121.644H93.3536V139.528H94.4753V121.644Z" fill="url(#paint28_linear)"/>
<path style="mix-blend-mode:multiply" opacity="0.21" d="M99.8121 121.625H98.6898V139.546H99.8121V121.625Z" fill="url(#paint29_linear)"/>
<path style="mix-blend-mode:multiply" opacity="0.21" d="M105.116 121.43H103.994V139.388H105.116V121.43Z" fill="url(#paint30_linear)"/>
<path style="mix-blend-mode:multiply" opacity="0.21" d="M110.365 121.059H109.243V139.055H110.365V121.059Z" fill="url(#paint31_linear)"/>
<path style="mix-blend-mode:multiply" opacity="0.21" d="M115.544 120.511H114.427V138.553H115.544V120.511Z" fill="url(#paint32_linear)"/>
<path style="mix-blend-mode:multiply" opacity="0.21" d="M120.649 119.805H119.532V137.874H120.649V119.805Z" fill="url(#paint33_linear)"/>
<path style="mix-blend-mode:multiply" opacity="0.21" d="M125.673 118.923H124.553V137.039H125.673V118.923Z" fill="url(#paint34_linear)"/>
<path style="mix-blend-mode:multiply" opacity="0.21" d="M130.599 117.883H129.48V136.027H130.599V117.883Z" fill="url(#paint35_linear)"/>
<path style="mix-blend-mode:multiply" opacity="0.21" d="M135.421 116.676H134.299V134.866H135.421V116.676Z" fill="url(#paint36_linear)"/>
<path style="mix-blend-mode:multiply" opacity="0.21" d="M140.125 115.311H139.003V133.53H140.125V115.311Z" fill="url(#paint37_linear)"/>
<path style="mix-blend-mode:multiply" opacity="0.21" d="M144.704 113.788H143.584V132.053H144.704V113.788Z" fill="url(#paint38_linear)"/>
<path style="mix-blend-mode:multiply" opacity="0.21" d="M149.15 112.107H148.031V130.409H149.15V112.107Z" fill="url(#paint39_linear)"/>
<path style="mix-blend-mode:multiply" opacity="0.21" d="M153.451 110.278H152.329V128.618H153.451V110.278Z" fill="url(#paint40_linear)"/>
<path style="mix-blend-mode:multiply" opacity="0.21" d="M157.596 108.291H156.476V126.667H157.596V108.291Z" fill="url(#paint41_linear)"/>
<path style="mix-blend-mode:multiply" opacity="0.21" d="M161.577 106.164H160.455V124.587H161.577V106.164Z" fill="url(#paint42_linear)"/>
<path style="mix-blend-mode:multiply" opacity="0.21" d="M166.264 103.323H165.145V121.783H166.264V103.323Z" fill="url(#paint43_linear)"/>
<path style="mix-blend-mode:multiply" opacity="0.21" d="M170.889 100.092H169.77V118.589H170.889V100.092Z" fill="url(#paint44_linear)"/>
<path style="mix-blend-mode:multiply" opacity="0.21" d="M175.11 96.6833H173.992V115.209H175.11V96.6833Z" fill="url(#paint45_linear)"/>
<path style="mix-blend-mode:multiply" opacity="0.21" d="M178.92 93.0895H177.798V111.661H178.92V93.0895Z" fill="url(#paint46_linear)"/>
<path style="mix-blend-mode:multiply" opacity="0.21" d="M182.307 89.3386H181.187V107.947H182.307V89.3386Z" fill="url(#paint47_linear)"/>
<path style="mix-blend-mode:multiply" opacity="0.21" d="M185.268 85.429H184.148V104.075H185.268V85.429Z" fill="url(#paint48_linear)"/>
<path style="mix-blend-mode:multiply" opacity="0.21" d="M187.794 81.3898H186.675V100.073H187.794V81.3898Z" fill="url(#paint49_linear)"/>
<path style="mix-blend-mode:multiply" opacity="0.21" d="M189.878 77.2116H188.757V95.9316H189.878V77.2116Z" fill="url(#paint50_linear)"/>
<path style="mix-blend-mode:multiply" opacity="0.21" d="M191.51 72.9213H190.393V91.6876H191.51V72.9213Z" fill="url(#paint51_linear)"/>
<path style="mix-blend-mode:multiply" opacity="0.21" d="M192.691 68.5294H191.569V87.3234H192.691V68.5294Z" fill="url(#paint52_linear)"/>
<path style="mix-blend-mode:multiply" opacity="0.21" d="M193.4 64.0443H192.28V82.8758H193.4V64.0443Z" fill="url(#paint53_linear)"/>
<path style="mix-blend-mode:multiply" opacity="0.21" d="M193.639 59.4757H192.519V78.3442H193.639V59.4757Z" fill="url(#paint54_linear)"/>
</g>
</g>
<defs>
<linearGradient id="paint0_linear" x1="15.7333" y1="216.443" x2="207.825" y2="216.443" gradientUnits="userSpaceOnUse">
<stop stop-color="#101213"/>
<stop offset="0.289" stop-color="#0D181A"/>
<stop offset="0.71" stop-color="#062A2D"/>
<stop offset="1" stop-color="#003B3F"/>
</linearGradient>
<linearGradient id="paint1_linear" x1="6.10352e-05" y1="68.7988" x2="193.081" y2="68.7988" gradientUnits="userSpaceOnUse">
<stop offset="0.019" stop-color="#7FFFD6"/>
<stop offset="0.134" stop-color="#51D1AB"/>
<stop offset="0.244" stop-color="#2EAD8A"/>
<stop offset="0.347" stop-color="#149373"/>
<stop offset="0.439" stop-color="#058464"/>
<stop offset="0.513" stop-color="#007F60"/>
</linearGradient>
<linearGradient id="paint2_linear" x1="-5223.2" y1="22.9487" x2="-5333.42" y2="149.056" gradientUnits="userSpaceOnUse">
<stop offset="0.019" stop-color="#7FFFD6"/>
<stop offset="0.134" stop-color="#51D1AB"/>
<stop offset="0.244" stop-color="#2EAD8A"/>
<stop offset="0.347" stop-color="#149373"/>
<stop offset="0.439" stop-color="#058464"/>
<stop offset="0.513" stop-color="#007F60"/>
</linearGradient>
<linearGradient id="paint3_linear" x1="0.0181773" y1="110.778" x2="0.0181773" y2="156.102" gradientUnits="userSpaceOnUse">
<stop offset="0.019" stop-color="#7FFFD6"/>
<stop offset="0.134" stop-color="#51D1AB"/>
<stop offset="0.244" stop-color="#2EAD8A"/>
<stop offset="0.347" stop-color="#149373"/>
<stop offset="0.439" stop-color="#058464"/>
<stop offset="0.513" stop-color="#007F60"/>
</linearGradient>
<linearGradient id="paint4_linear" x1="0.259022" y1="110.777" x2="0.259022" y2="156.106" gradientUnits="userSpaceOnUse">
<stop offset="0.019" stop-color="#7FFFD6"/>
<stop offset="0.134" stop-color="#51D1AB"/>
<stop offset="0.244" stop-color="#2EAD8A"/>
<stop offset="0.347" stop-color="#149373"/>
<stop offset="0.439" stop-color="#058464"/>
<stop offset="0.513" stop-color="#007F60"/>
</linearGradient>
<linearGradient id="paint5_linear" x1="0.973065" y1="110.782" x2="0.973065" y2="156.11" gradientUnits="userSpaceOnUse">
<stop offset="0.019" stop-color="#7FFFD6"/>
<stop offset="0.134" stop-color="#51D1AB"/>
<stop offset="0.244" stop-color="#2EAD8A"/>
<stop offset="0.347" stop-color="#149373"/>
<stop offset="0.439" stop-color="#058464"/>
<stop offset="0.513" stop-color="#007F60"/>
</linearGradient>
<linearGradient id="paint6_linear" x1="2.1511" y1="110.781" x2="2.1511" y2="156.103" gradientUnits="userSpaceOnUse">
<stop offset="0.019" stop-color="#7FFFD6"/>
<stop offset="0.134" stop-color="#51D1AB"/>
<stop offset="0.244" stop-color="#2EAD8A"/>
<stop offset="0.347" stop-color="#149373"/>
<stop offset="0.439" stop-color="#058464"/>
<stop offset="0.513" stop-color="#007F60"/>
</linearGradient>
<linearGradient id="paint7_linear" x1="3.79203" y1="110.781" x2="3.79203" y2="156.117" gradientUnits="userSpaceOnUse">
<stop offset="0.019" stop-color="#7FFFD6"/>
<stop offset="0.134" stop-color="#51D1AB"/>
<stop offset="0.244" stop-color="#2EAD8A"/>
<stop offset="0.347" stop-color="#149373"/>
<stop offset="0.439" stop-color="#058464"/>
<stop offset="0.513" stop-color="#007F60"/>
</linearGradient>
<linearGradient id="paint8_linear" x1="5.87865" y1="110.78" x2="5.87865" y2="156.105" gradientUnits="userSpaceOnUse">
<stop offset="0.019" stop-color="#7FFFD6"/>
<stop offset="0.134" stop-color="#51D1AB"/>
<stop offset="0.244" stop-color="#2EAD8A"/>
<stop offset="0.347" stop-color="#149373"/>
<stop offset="0.439" stop-color="#058464"/>
<stop offset="0.513" stop-color="#007F60"/>
</linearGradient>
<linearGradient id="paint9_linear" x1="8.41314" y1="110.771" x2="8.41314" y2="156.114" gradientUnits="userSpaceOnUse">
<stop offset="0.019" stop-color="#7FFFD6"/>
<stop offset="0.134" stop-color="#51D1AB"/>
<stop offset="0.244" stop-color="#2EAD8A"/>
<stop offset="0.347" stop-color="#149373"/>
<stop offset="0.439" stop-color="#058464"/>
<stop offset="0.513" stop-color="#007F60"/>
</linearGradient>
<linearGradient id="paint10_linear" x1="11.3872" y1="110.772" x2="11.3872" y2="156.11" gradientUnits="userSpaceOnUse">
<stop offset="0.019" stop-color="#7FFFD6"/>
<stop offset="0.134" stop-color="#51D1AB"/>
<stop offset="0.244" stop-color="#2EAD8A"/>
<stop offset="0.347" stop-color="#149373"/>
<stop offset="0.439" stop-color="#058464"/>
<stop offset="0.513" stop-color="#007F60"/>
</linearGradient>
<linearGradient id="paint11_linear" x1="14.7859" y1="110.781" x2="14.7859" y2="156.114" gradientUnits="userSpaceOnUse">
<stop offset="0.019" stop-color="#7FFFD6"/>
<stop offset="0.134" stop-color="#51D1AB"/>
<stop offset="0.244" stop-color="#2EAD8A"/>
<stop offset="0.347" stop-color="#149373"/>
<stop offset="0.439" stop-color="#058464"/>
<stop offset="0.513" stop-color="#007F60"/>
</linearGradient>
<linearGradient id="paint12_linear" x1="18.6086" y1="110.771" x2="18.6086" y2="156.116" gradientUnits="userSpaceOnUse">
<stop offset="0.019" stop-color="#7FFFD6"/>
<stop offset="0.134" stop-color="#51D1AB"/>
<stop offset="0.244" stop-color="#2EAD8A"/>
<stop offset="0.347" stop-color="#149373"/>
<stop offset="0.439" stop-color="#058464"/>
<stop offset="0.513" stop-color="#007F60"/>
</linearGradient>
<linearGradient id="paint13_linear" x1="22.8418" y1="110.776" x2="22.8418" y2="156.115" gradientUnits="userSpaceOnUse">
<stop offset="0.019" stop-color="#7FFFD6"/>
<stop offset="0.134" stop-color="#51D1AB"/>
<stop offset="0.244" stop-color="#2EAD8A"/>
<stop offset="0.347" stop-color="#149373"/>
<stop offset="0.439" stop-color="#058464"/>
<stop offset="0.513" stop-color="#007F60"/>
</linearGradient>
<linearGradient id="paint14_linear" x1="27.4853" y1="110.772" x2="27.4853" y2="156.102" gradientUnits="userSpaceOnUse">
<stop offset="0.019" stop-color="#7FFFD6"/>
<stop offset="0.134" stop-color="#51D1AB"/>
<stop offset="0.244" stop-color="#2EAD8A"/>
<stop offset="0.347" stop-color="#149373"/>
<stop offset="0.439" stop-color="#058464"/>
<stop offset="0.513" stop-color="#007F60"/>
</linearGradient>
<linearGradient id="paint15_linear" x1="32.1965" y1="110.783" x2="32.1965" y2="156.107" gradientUnits="userSpaceOnUse">
<stop offset="0.019" stop-color="#7FFFD6"/>
<stop offset="0.134" stop-color="#51D1AB"/>
<stop offset="0.244" stop-color="#2EAD8A"/>
<stop offset="0.347" stop-color="#149373"/>
<stop offset="0.439" stop-color="#058464"/>
<stop offset="0.513" stop-color="#007F60"/>
</linearGradient>
<linearGradient id="paint16_linear" x1="36.1745" y1="110.781" x2="36.1745" y2="156.114" gradientUnits="userSpaceOnUse">
<stop offset="0.019" stop-color="#7FFFD6"/>
<stop offset="0.134" stop-color="#51D1AB"/>
<stop offset="0.244" stop-color="#2EAD8A"/>
<stop offset="0.347" stop-color="#149373"/>
<stop offset="0.439" stop-color="#058464"/>
<stop offset="0.513" stop-color="#007F60"/>
</linearGradient>
<linearGradient id="paint17_linear" x1="40.32" y1="110.78" x2="40.32" y2="156.105" gradientUnits="userSpaceOnUse">
<stop offset="0.019" stop-color="#7FFFD6"/>
<stop offset="0.134" stop-color="#51D1AB"/>
<stop offset="0.244" stop-color="#2EAD8A"/>
<stop offset="0.347" stop-color="#149373"/>
<stop offset="0.439" stop-color="#058464"/>
<stop offset="0.513" stop-color="#007F60"/>
</linearGradient>
<linearGradient id="paint18_linear" x1="44.6224" y1="110.778" x2="44.6224" y2="156.114" gradientUnits="userSpaceOnUse">
<stop offset="0.019" stop-color="#7FFFD6"/>
<stop offset="0.134" stop-color="#51D1AB"/>
<stop offset="0.244" stop-color="#2EAD8A"/>
<stop offset="0.347" stop-color="#149373"/>
<stop offset="0.439" stop-color="#058464"/>
<stop offset="0.513" stop-color="#007F60"/>
</linearGradient>
<linearGradient id="paint19_linear" x1="49.0672" y1="110.768" x2="49.0672" y2="156.117" gradientUnits="userSpaceOnUse">
<stop offset="0.019" stop-color="#7FFFD6"/>
<stop offset="0.134" stop-color="#51D1AB"/>
<stop offset="0.244" stop-color="#2EAD8A"/>
<stop offset="0.347" stop-color="#149373"/>
<stop offset="0.439" stop-color="#058464"/>
<stop offset="0.513" stop-color="#007F60"/>
</linearGradient>
<linearGradient id="paint20_linear" x1="53.6452" y1="110.779" x2="53.6452" y2="156.1" gradientUnits="userSpaceOnUse">
<stop offset="0.019" stop-color="#7FFFD6"/>
<stop offset="0.134" stop-color="#51D1AB"/>
<stop offset="0.244" stop-color="#2EAD8A"/>
<stop offset="0.347" stop-color="#149373"/>
<stop offset="0.439" stop-color="#058464"/>
<stop offset="0.513" stop-color="#007F60"/>
</linearGradient>
<linearGradient id="paint21_linear" x1="58.3514" y1="110.769" x2="58.3514" y2="156.11" gradientUnits="userSpaceOnUse">
<stop offset="0.019" stop-color="#7FFFD6"/>
<stop offset="0.134" stop-color="#51D1AB"/>
<stop offset="0.244" stop-color="#2EAD8A"/>
<stop offset="0.347" stop-color="#149373"/>
<stop offset="0.439" stop-color="#058464"/>
<stop offset="0.513" stop-color="#007F60"/>
</linearGradient>
<linearGradient id="paint22_linear" x1="63.1671" y1="110.775" x2="63.1671" y2="156.113" gradientUnits="userSpaceOnUse">
<stop offset="0.019" stop-color="#7FFFD6"/>
<stop offset="0.134" stop-color="#51D1AB"/>
<stop offset="0.244" stop-color="#2EAD8A"/>
<stop offset="0.347" stop-color="#149373"/>
<stop offset="0.439" stop-color="#058464"/>
<stop offset="0.513" stop-color="#007F60"/>
</linearGradient>
<linearGradient id="paint23_linear" x1="68.0864" y1="110.781" x2="68.0864" y2="156.108" gradientUnits="userSpaceOnUse">
<stop offset="0.019" stop-color="#7FFFD6"/>
<stop offset="0.134" stop-color="#51D1AB"/>
<stop offset="0.244" stop-color="#2EAD8A"/>
<stop offset="0.347" stop-color="#149373"/>
<stop offset="0.439" stop-color="#058464"/>
<stop offset="0.513" stop-color="#007F60"/>
</linearGradient>
<linearGradient id="paint24_linear" x1="73.1004" y1="110.77" x2="73.1004" y2="156.109" gradientUnits="userSpaceOnUse">
<stop offset="0.019" stop-color="#7FFFD6"/>
<stop offset="0.134" stop-color="#51D1AB"/>
<stop offset="0.244" stop-color="#2EAD8A"/>
<stop offset="0.347" stop-color="#149373"/>
<stop offset="0.439" stop-color="#058464"/>
<stop offset="0.513" stop-color="#007F60"/>
</linearGradient>
<linearGradient id="paint25_linear" x1="78.2058" y1="110.768" x2="78.2058" y2="156.106" gradientUnits="userSpaceOnUse">
<stop offset="0.019" stop-color="#7FFFD6"/>
<stop offset="0.134" stop-color="#51D1AB"/>
<stop offset="0.244" stop-color="#2EAD8A"/>
<stop offset="0.347" stop-color="#149373"/>
<stop offset="0.439" stop-color="#058464"/>
<stop offset="0.513" stop-color="#007F60"/>
</linearGradient>
<linearGradient id="paint26_linear" x1="83.3781" y1="110.782" x2="83.3781" y2="156.102" gradientUnits="userSpaceOnUse">
<stop offset="0.019" stop-color="#7FFFD6"/>
<stop offset="0.134" stop-color="#51D1AB"/>
<stop offset="0.244" stop-color="#2EAD8A"/>
<stop offset="0.347" stop-color="#149373"/>
<stop offset="0.439" stop-color="#058464"/>
<stop offset="0.513" stop-color="#007F60"/>
</linearGradient>
<linearGradient id="paint27_linear" x1="88.6218" y1="110.768" x2="88.6218" y2="156.118" gradientUnits="userSpaceOnUse">
<stop offset="0.019" stop-color="#7FFFD6"/>
<stop offset="0.134" stop-color="#51D1AB"/>
<stop offset="0.244" stop-color="#2EAD8A"/>
<stop offset="0.347" stop-color="#149373"/>
<stop offset="0.439" stop-color="#058464"/>
<stop offset="0.513" stop-color="#007F60"/>
</linearGradient>
<linearGradient id="paint28_linear" x1="93.9145" y1="110.77" x2="93.9145" y2="156.107" gradientUnits="userSpaceOnUse">
<stop offset="0.019" stop-color="#7FFFD6"/>
<stop offset="0.134" stop-color="#51D1AB"/>
<stop offset="0.244" stop-color="#2EAD8A"/>
<stop offset="0.347" stop-color="#149373"/>
<stop offset="0.439" stop-color="#058464"/>
<stop offset="0.513" stop-color="#007F60"/>
</linearGradient>
<linearGradient id="paint29_linear" x1="99.251" y1="110.783" x2="99.251" y2="156.106" gradientUnits="userSpaceOnUse">
<stop offset="0.019" stop-color="#7FFFD6"/>
<stop offset="0.134" stop-color="#51D1AB"/>
<stop offset="0.244" stop-color="#2EAD8A"/>
<stop offset="0.347" stop-color="#149373"/>
<stop offset="0.439" stop-color="#058464"/>
<stop offset="0.513" stop-color="#007F60"/>
</linearGradient>
<linearGradient id="paint30_linear" x1="104.555" y1="110.78" x2="104.555" y2="156.108" gradientUnits="userSpaceOnUse">
<stop offset="0.019" stop-color="#7FFFD6"/>
<stop offset="0.134" stop-color="#51D1AB"/>
<stop offset="0.244" stop-color="#2EAD8A"/>
<stop offset="0.347" stop-color="#149373"/>
<stop offset="0.439" stop-color="#058464"/>
<stop offset="0.513" stop-color="#007F60"/>
</linearGradient>
<linearGradient id="paint31_linear" x1="109.804" y1="110.783" x2="109.804" y2="156.115" gradientUnits="userSpaceOnUse">
<stop offset="0.019" stop-color="#7FFFD6"/>
<stop offset="0.134" stop-color="#51D1AB"/>
<stop offset="0.244" stop-color="#2EAD8A"/>
<stop offset="0.347" stop-color="#149373"/>
<stop offset="0.439" stop-color="#058464"/>
<stop offset="0.513" stop-color="#007F60"/>
</linearGradient>
<linearGradient id="paint32_linear" x1="114.986" y1="110.768" x2="114.986" y2="156.108" gradientUnits="userSpaceOnUse">
<stop offset="0.019" stop-color="#7FFFD6"/>
<stop offset="0.134" stop-color="#51D1AB"/>
<stop offset="0.244" stop-color="#2EAD8A"/>
<stop offset="0.347" stop-color="#149373"/>
<stop offset="0.439" stop-color="#058464"/>
<stop offset="0.513" stop-color="#007F60"/>
</linearGradient>
<linearGradient id="paint33_linear" x1="120.09" y1="110.77" x2="120.09" y2="156.107" gradientUnits="userSpaceOnUse">
<stop offset="0.019" stop-color="#7FFFD6"/>
<stop offset="0.134" stop-color="#51D1AB"/>
<stop offset="0.244" stop-color="#2EAD8A"/>
<stop offset="0.347" stop-color="#149373"/>
<stop offset="0.439" stop-color="#058464"/>
<stop offset="0.513" stop-color="#007F60"/>
</linearGradient>
<linearGradient id="paint34_linear" x1="125.113" y1="110.77" x2="125.113" y2="156.115" gradientUnits="userSpaceOnUse">
<stop offset="0.019" stop-color="#7FFFD6"/>
<stop offset="0.134" stop-color="#51D1AB"/>
<stop offset="0.244" stop-color="#2EAD8A"/>
<stop offset="0.347" stop-color="#149373"/>
<stop offset="0.439" stop-color="#058464"/>
<stop offset="0.513" stop-color="#007F60"/>
</linearGradient>
<linearGradient id="paint35_linear" x1="130.04" y1="110.77" x2="130.04" y2="156.113" gradientUnits="userSpaceOnUse">
<stop offset="0.019" stop-color="#7FFFD6"/>
<stop offset="0.134" stop-color="#51D1AB"/>
<stop offset="0.244" stop-color="#2EAD8A"/>
<stop offset="0.347" stop-color="#149373"/>
<stop offset="0.439" stop-color="#058464"/>
<stop offset="0.513" stop-color="#007F60"/>
</linearGradient>
<linearGradient id="paint36_linear" x1="134.86" y1="110.782" x2="134.86" y2="156.113" gradientUnits="userSpaceOnUse">
<stop offset="0.019" stop-color="#7FFFD6"/>
<stop offset="0.134" stop-color="#51D1AB"/>
<stop offset="0.244" stop-color="#2EAD8A"/>
<stop offset="0.347" stop-color="#149373"/>
<stop offset="0.439" stop-color="#058464"/>
<stop offset="0.513" stop-color="#007F60"/>
</linearGradient>
<linearGradient id="paint37_linear" x1="139.564" y1="110.774" x2="139.564" y2="156.103" gradientUnits="userSpaceOnUse">
<stop offset="0.019" stop-color="#7FFFD6"/>
<stop offset="0.134" stop-color="#51D1AB"/>
<stop offset="0.244" stop-color="#2EAD8A"/>
<stop offset="0.347" stop-color="#149373"/>
<stop offset="0.439" stop-color="#058464"/>
<stop offset="0.513" stop-color="#007F60"/>
</linearGradient>
<linearGradient id="paint38_linear" x1="144.144" y1="110.774" x2="144.144" y2="156.108" gradientUnits="userSpaceOnUse">
<stop offset="0.019" stop-color="#7FFFD6"/>
<stop offset="0.134" stop-color="#51D1AB"/>
<stop offset="0.244" stop-color="#2EAD8A"/>
<stop offset="0.347" stop-color="#149373"/>
<stop offset="0.439" stop-color="#058464"/>
<stop offset="0.513" stop-color="#007F60"/>
</linearGradient>
<linearGradient id="paint39_linear" x1="148.591" y1="110.771" x2="148.591" y2="156.106" gradientUnits="userSpaceOnUse">
<stop offset="0.019" stop-color="#7FFFD6"/>
<stop offset="0.134" stop-color="#51D1AB"/>
<stop offset="0.244" stop-color="#2EAD8A"/>
<stop offset="0.347" stop-color="#149373"/>
<stop offset="0.439" stop-color="#058464"/>
<stop offset="0.513" stop-color="#007F60"/>
</linearGradient>
<linearGradient id="paint40_linear" x1="152.89" y1="110.773" x2="152.89" y2="156.109" gradientUnits="userSpaceOnUse">
<stop offset="0.019" stop-color="#7FFFD6"/>
<stop offset="0.134" stop-color="#51D1AB"/>
<stop offset="0.244" stop-color="#2EAD8A"/>
<stop offset="0.347" stop-color="#149373"/>
<stop offset="0.439" stop-color="#058464"/>
<stop offset="0.513" stop-color="#007F60"/>
</linearGradient>
<linearGradient id="paint41_linear" x1="157.036" y1="110.772" x2="157.036" y2="156.106" gradientUnits="userSpaceOnUse">
<stop offset="0.019" stop-color="#7FFFD6"/>
<stop offset="0.134" stop-color="#51D1AB"/>
<stop offset="0.244" stop-color="#2EAD8A"/>
<stop offset="0.347" stop-color="#149373"/>
<stop offset="0.439" stop-color="#058464"/>
<stop offset="0.513" stop-color="#007F60"/>
</linearGradient>
<linearGradient id="paint42_linear" x1="161.016" y1="110.77" x2="161.016" y2="156.109" gradientUnits="userSpaceOnUse">
<stop offset="0.019" stop-color="#7FFFD6"/>
<stop offset="0.134" stop-color="#51D1AB"/>
<stop offset="0.244" stop-color="#2EAD8A"/>
<stop offset="0.347" stop-color="#149373"/>
<stop offset="0.439" stop-color="#058464"/>
<stop offset="0.513" stop-color="#007F60"/>
</linearGradient>
<linearGradient id="paint43_linear" x1="165.705" y1="110.781" x2="165.705" y2="156.119" gradientUnits="userSpaceOnUse">
<stop offset="0.019" stop-color="#7FFFD6"/>
<stop offset="0.134" stop-color="#51D1AB"/>
<stop offset="0.244" stop-color="#2EAD8A"/>
<stop offset="0.347" stop-color="#149373"/>
<stop offset="0.439" stop-color="#058464"/>
<stop offset="0.513" stop-color="#007F60"/>
</linearGradient>
<linearGradient id="paint44_linear" x1="170.329" y1="110.783" x2="170.329" y2="156.101" gradientUnits="userSpaceOnUse">
<stop offset="0.019" stop-color="#7FFFD6"/>
<stop offset="0.134" stop-color="#51D1AB"/>
<stop offset="0.244" stop-color="#2EAD8A"/>
<stop offset="0.347" stop-color="#149373"/>
<stop offset="0.439" stop-color="#058464"/>
<stop offset="0.513" stop-color="#007F60"/>
</linearGradient>
<linearGradient id="paint45_linear" x1="174.551" y1="110.781" x2="174.551" y2="156.112" gradientUnits="userSpaceOnUse">
<stop offset="0.019" stop-color="#7FFFD6"/>
<stop offset="0.134" stop-color="#51D1AB"/>
<stop offset="0.244" stop-color="#2EAD8A"/>
<stop offset="0.347" stop-color="#149373"/>
<stop offset="0.439" stop-color="#058464"/>
<stop offset="0.513" stop-color="#007F60"/>
</linearGradient>
<linearGradient id="paint46_linear" x1="178.359" y1="110.77" x2="178.359" y2="156.103" gradientUnits="userSpaceOnUse">
<stop offset="0.019" stop-color="#7FFFD6"/>
<stop offset="0.134" stop-color="#51D1AB"/>
<stop offset="0.244" stop-color="#2EAD8A"/>
<stop offset="0.347" stop-color="#149373"/>
<stop offset="0.439" stop-color="#058464"/>
<stop offset="0.513" stop-color="#007F60"/>
</linearGradient>
<linearGradient id="paint47_linear" x1="181.747" y1="110.776" x2="181.747" y2="156.106" gradientUnits="userSpaceOnUse">
<stop offset="0.019" stop-color="#7FFFD6"/>
<stop offset="0.134" stop-color="#51D1AB"/>
<stop offset="0.244" stop-color="#2EAD8A"/>
<stop offset="0.347" stop-color="#149373"/>
<stop offset="0.439" stop-color="#058464"/>
<stop offset="0.513" stop-color="#007F60"/>
</linearGradient>
<linearGradient id="paint48_linear" x1="184.708" y1="110.769" x2="184.708" y2="156.116" gradientUnits="userSpaceOnUse">
<stop offset="0.019" stop-color="#7FFFD6"/>
<stop offset="0.134" stop-color="#51D1AB"/>
<stop offset="0.244" stop-color="#2EAD8A"/>
<stop offset="0.347" stop-color="#149373"/>
<stop offset="0.439" stop-color="#058464"/>
<stop offset="0.513" stop-color="#007F60"/>
</linearGradient>
<linearGradient id="paint49_linear" x1="187.235" y1="110.778" x2="187.235" y2="156.103" gradientUnits="userSpaceOnUse">
<stop offset="0.019" stop-color="#7FFFD6"/>
<stop offset="0.134" stop-color="#51D1AB"/>
<stop offset="0.244" stop-color="#2EAD8A"/>
<stop offset="0.347" stop-color="#149373"/>
<stop offset="0.439" stop-color="#058464"/>
<stop offset="0.513" stop-color="#007F60"/>
</linearGradient>
<linearGradient id="paint50_linear" x1="189.317" y1="110.777" x2="189.317" y2="156.117" gradientUnits="userSpaceOnUse">
<stop offset="0.019" stop-color="#7FFFD6"/>
<stop offset="0.134" stop-color="#51D1AB"/>
<stop offset="0.244" stop-color="#2EAD8A"/>
<stop offset="0.347" stop-color="#149373"/>
<stop offset="0.439" stop-color="#058464"/>
<stop offset="0.513" stop-color="#007F60"/>
</linearGradient>
<linearGradient id="paint51_linear" x1="190.952" y1="110.773" x2="190.952" y2="156.113" gradientUnits="userSpaceOnUse">
<stop offset="0.019" stop-color="#7FFFD6"/>
<stop offset="0.134" stop-color="#51D1AB"/>
<stop offset="0.244" stop-color="#2EAD8A"/>
<stop offset="0.347" stop-color="#149373"/>
<stop offset="0.439" stop-color="#058464"/>
<stop offset="0.513" stop-color="#007F60"/>
</linearGradient>
<linearGradient id="paint52_linear" x1="192.13" y1="110.778" x2="192.13" y2="156.109" gradientUnits="userSpaceOnUse">
<stop offset="0.019" stop-color="#7FFFD6"/>
<stop offset="0.134" stop-color="#51D1AB"/>
<stop offset="0.244" stop-color="#2EAD8A"/>
<stop offset="0.347" stop-color="#149373"/>
<stop offset="0.439" stop-color="#058464"/>
<stop offset="0.513" stop-color="#007F60"/>
</linearGradient>
<linearGradient id="paint53_linear" x1="192.84" y1="110.784" x2="192.84" y2="156.112" gradientUnits="userSpaceOnUse">
<stop offset="0.019" stop-color="#7FFFD6"/>
<stop offset="0.134" stop-color="#51D1AB"/>
<stop offset="0.244" stop-color="#2EAD8A"/>
<stop offset="0.347" stop-color="#149373"/>
<stop offset="0.439" stop-color="#058464"/>
<stop offset="0.513" stop-color="#007F60"/>
</linearGradient>
<linearGradient id="paint54_linear" x1="193.079" y1="110.779" x2="193.079" y2="156.101" gradientUnits="userSpaceOnUse">
<stop offset="0.019" stop-color="#7FFFD6"/>
<stop offset="0.134" stop-color="#51D1AB"/>
<stop offset="0.244" stop-color="#2EAD8A"/>
<stop offset="0.347" stop-color="#149373"/>
<stop offset="0.439" stop-color="#058464"/>
<stop offset="0.513" stop-color="#007F60"/>
</linearGradient>
<clipPath id="clip0">
<rect width="212" height="282" fill="white"/>
</clipPath>
</defs>
</svg>
