<svg width="150" height="173" viewBox="0 0 150 173" fill="none" xmlns="http://www.w3.org/2000/svg">
<g clip-path="url(#clip0)">
<path d="M43.8646 71.2821V70.0769C43.8646 68.8716 44.5527 67.6664 45.5848 66.9776L46.6169 66.4611L35.7798 60.0905V61.2957C35.7798 62.501 35.0917 63.7062 34.0596 64.395L33.0275 64.9115L43.8646 71.2821Z" fill="white"/>
<path d="M106.307 100.897V102.102C106.307 103.307 105.619 104.513 104.587 105.201L103.555 105.89L114.392 112.088V110.883C114.392 109.678 115.08 108.473 116.112 107.784L117.144 107.267L106.307 100.897Z" fill="white"/>
<path d="M103.899 71.2821C103.899 70.0768 103.211 68.8716 102.179 68.1828L101.147 67.6663L77.7524 54.0642L76.7202 53.5476C76.2042 53.2033 75.5161 53.0311 75.0001 53.0311C74.312 53.0311 73.7959 53.2033 73.2799 53.5476L72.2478 54.2364L48.8533 67.6663L47.8212 68.1828C46.7891 68.8716 46.101 69.9046 46.101 71.2821V100.553C46.101 101.758 46.7891 102.963 47.8212 103.652L48.8533 104.168L72.0758 117.598L73.1079 118.115C73.6239 118.459 74.312 118.631 74.8281 118.631C75.3441 118.631 76.0322 118.459 76.5482 118.115L77.5803 117.598L100.803 104.168L101.835 103.48C102.867 102.791 103.555 101.758 103.555 100.38V71.2821H103.899Z" fill="white"/>
<path d="M43.8646 102.102V100.897L33.0275 107.095L34.0596 107.612C35.0917 108.301 35.7798 109.334 35.7798 110.711V111.916L46.6169 105.718L45.5848 105.029C44.5527 104.513 43.8646 103.307 43.8646 102.102Z" fill="white"/>
<path d="M106.307 70.0768V71.2821L117.144 65.0836L116.112 64.5671C115.08 63.8784 114.392 62.8453 114.392 61.4679V60.2626L103.555 66.4611L104.587 66.9776C105.619 67.6663 106.307 68.6994 106.307 70.0768Z" fill="white"/>
<path d="M148.28 41.6673L147.248 41.1508L135.895 34.608L135.034 34.0914C134.518 33.7471 133.83 33.5749 133.314 33.5749C132.626 33.5749 132.11 33.7471 131.594 34.0914L130.734 34.608L119.209 41.3229L118.349 41.8395C117.317 42.5282 116.629 43.5613 116.629 44.9387V60.2626C116.629 61.4679 117.317 62.6731 118.349 63.3618L119.381 63.8784L130.734 70.4212L131.594 70.9377C132.11 71.2821 132.798 71.4543 133.314 71.4543C133.83 71.4543 134.518 71.2821 135.034 70.9377L135.895 70.4212L147.42 63.7062L148.28 63.1897C149.312 62.5009 150 61.4679 150 60.0904V44.7665C150 43.3891 149.312 42.356 148.28 41.6673Z" fill="white"/>
<path d="M76.7202 39.7733C76.2041 40.1177 75.5161 40.2899 75 40.2899C74.4839 40.2899 73.7959 40.1177 73.2798 39.7733L72.2477 39.0846V51.6537L73.2798 50.965C73.7959 50.6206 74.4839 50.4484 75 50.4484C75.5161 50.4484 76.2041 50.6206 76.7202 50.965L77.7523 51.4815V39.0846L76.7202 39.7733Z" fill="white"/>
<path d="M73.2798 132.406C73.7959 132.061 74.4839 131.889 75 131.889C75.5161 131.889 76.2041 132.061 76.7202 132.406L77.7523 132.922V120.353L76.7202 121.042C76.2041 121.386 75.5161 121.558 75 121.558C74.4839 121.558 73.7959 121.386 73.2798 121.042L72.2477 120.525V133.094L73.2798 132.406Z" fill="white"/>
<path d="M89.9656 142.736L89.1056 142.22L77.7523 135.677L76.7202 134.988C76.2042 134.644 75.5161 134.472 75 134.472C74.312 134.472 73.7959 134.644 73.2799 134.988L72.2478 135.505L60.8945 142.048L60.0345 142.564C59.0023 143.253 58.3143 144.286 58.3143 145.663V160.987C58.3143 162.193 59.0023 163.398 60.0345 164.087L60.8945 164.603L72.2478 171.146L73.2799 171.662C73.7959 172.007 74.484 172.179 75 172.179C75.5161 172.179 76.2042 172.007 76.7202 171.662L77.7523 171.146L89.1056 164.603L89.9656 164.087C90.9978 163.398 91.6858 162.365 91.6858 160.987V145.663C91.8578 144.458 91.1698 143.253 89.9656 142.736Z" fill="white"/>
<path d="M148.28 108.989L147.42 108.473L136.067 101.93L135.206 101.413C134.69 101.069 134.002 100.897 133.486 100.897C132.798 100.897 132.282 101.069 131.766 101.413L130.906 101.93L119.381 108.473L118.349 108.989C117.317 109.678 116.629 110.711 116.629 112.088V127.412C116.629 128.618 117.317 129.823 118.349 130.512L119.209 131.028L130.734 137.743L131.594 138.26C132.11 138.604 132.798 138.776 133.314 138.776C133.83 138.776 134.518 138.604 135.034 138.26L135.895 137.743L147.248 131.2L148.28 130.684C149.312 129.995 150 128.962 150 127.585V112.261C150 110.883 149.312 109.678 148.28 108.989Z" fill="white"/>
<path d="M31.8234 108.989L30.7913 108.473L19.4381 101.93L18.75 101.413C18.2339 101.069 17.5458 100.897 17.0298 100.897C16.5137 100.897 15.8257 101.069 15.3096 101.413L14.2775 101.93L2.75227 108.473L1.89218 108.989C0.86007 109.678 0.171997 110.711 0.171997 112.088V127.412C0.171997 128.618 0.86007 129.823 1.89218 130.512L2.92429 131.028L14.1055 137.571L15.1376 138.087C15.6536 138.432 16.3417 138.604 16.8578 138.604C17.5459 138.604 18.0619 138.432 18.578 138.087L19.266 137.571L30.7913 130.856L31.6514 130.339C32.6835 129.651 33.3715 128.618 33.3715 127.24V111.916C33.5436 110.883 32.8555 109.678 31.8234 108.989Z" fill="white"/>
<path d="M60.0345 29.4426L60.8946 29.9591L72.2478 36.5019L73.2799 37.1907C73.7959 37.535 74.484 37.7072 75.0001 37.7072C75.5161 37.7072 76.2042 37.535 76.7202 37.1907L77.7524 36.6741L89.1056 30.1313L89.9657 29.6148C90.9978 28.9261 91.6858 27.893 91.6858 26.5156V11.1916C91.6858 9.98638 90.9978 8.78113 89.9657 8.09241L89.1056 7.57587L77.7524 1.03307L76.7202 0.516537C76.2042 0.172179 75.5161 0 75.0001 0C74.312 0 73.7959 0.172179 73.2799 0.516537L72.2478 1.20525L61.0666 7.74805L60.2065 8.26459C59.1744 8.95331 58.4863 9.98638 58.4863 11.3638V26.6877C58.3143 27.7208 59.0024 28.9261 60.0345 29.4426Z" fill="white"/>
<path d="M1.72018 63.0175L2.58028 63.5341L14.1055 70.249L14.9656 70.7656C15.4817 71.1099 16.1697 71.2821 16.6858 71.2821C17.3739 71.2821 17.8899 71.1099 18.406 70.7656L19.2661 70.249L30.6193 63.7062L31.6514 63.1897C32.6835 62.501 33.3716 61.4679 33.3716 60.0905V44.7666C33.3716 43.5613 32.6835 42.3561 31.6514 41.6673L30.7913 41.1508L19.2661 34.4358L18.406 33.9193C17.8899 33.5749 17.2018 33.4027 16.6858 33.4027C15.9977 33.4027 15.4817 33.5749 14.9656 33.9193L14.1055 34.4358L2.75229 41.1508L1.72018 41.6673C0.688073 42.3561 0 43.3891 0 44.7666V60.0905C0 61.2957 0.688073 62.501 1.72018 63.0175Z" fill="white"/>
</g>
<defs>
<clipPath id="clip0">
<rect width="150" height="172.179" fill="white"/>
</clipPath>
</defs>
</svg>
