<svg width="150" height="133" viewBox="0 0 150 133" fill="none" xmlns="http://www.w3.org/2000/svg">
<g clip-path="url(#clip0)">
<path d="M84.8811 0C83.9092 0 82.9373 0.653202 82.6133 1.3064L63.1749 26.1281C61.879 27.4345 61.879 30.0473 63.4988 31.3537C65.1187 32.6601 67.7105 32.0069 68.6824 30.3739L85.2051 9.14483L97.1921 24.8217H92.0086C90.0647 24.8217 88.4448 26.4547 88.4448 28.4143V62.0542C86.177 62.0542 83.9092 62.0542 81.3174 62.0542V28.4143C81.3174 26.4547 79.6975 24.8217 77.7537 24.8217C75.8098 24.8217 74.514 26.4547 74.514 28.4143V65.3202C74.514 67.2798 76.1338 68.9128 78.0777 68.9128C82.6133 68.9128 87.4729 68.9128 92.0086 68.9128C93.9524 68.9128 95.5723 67.2798 95.5723 65.3202V32.0069H104.32C105.615 32.0069 106.911 31.3537 107.559 30.0473C108.207 28.7409 107.883 27.4345 107.235 26.4547L87.7969 1.63301C87.1489 0.326601 85.853 0 84.8811 0Z" fill="white"/>
<path d="M119.871 7.18524C117.927 7.18524 116.307 9.14485 116.631 10.7779C116.955 12.4109 118.575 14.3705 120.195 14.0439C123.758 14.0439 127.322 14.0439 130.562 14.0439V47.6838C130.562 49.6434 132.182 51.2764 134.125 51.2764H139.309L127.322 66.6266L115.335 51.2764H120.519C122.462 51.2764 124.082 49.6434 124.082 47.6838V24.8217C124.082 22.8621 122.462 21.2291 120.519 21.2291C118.251 21.2291 116.631 22.8621 116.631 24.8217V44.4178H107.884C106.588 44.4178 105.292 45.3976 104.644 46.3774C103.996 47.6838 104.32 48.9902 104.968 49.97L124.406 74.7916C125.702 76.4247 128.618 76.4247 129.914 74.7916L149.352 49.97C150 48.9902 150.324 47.3572 149.676 46.3774C149.028 45.071 147.732 44.4178 146.436 44.4178H137.689V10.7779C137.689 8.81825 136.069 7.18524 134.125 7.18524C129.266 7.18524 124.082 7.18524 119.871 7.18524Z" fill="white"/>
<path d="M82.9373 132.6C77.1058 132.6 71.2743 131.947 65.4427 130.314L31.7494 122.149C26.5659 121.169 22.6782 116.597 22.6782 111.044V81.9768C22.6782 80.6704 23.3261 79.364 24.622 79.0374L32.0734 75.7714C42.4406 71.199 54.4276 70.8724 65.1188 74.465L91.3607 83.2832C97.1922 85.2428 100.432 91.7748 98.4881 97.6536C97.8402 99.6133 96.5443 101.246 95.2484 102.553L96.8682 103.206C99.136 103.859 101.404 103.859 103.348 102.879L134.449 88.5088C139.633 85.896 146.112 88.1822 148.704 93.7344C151.296 98.6335 149.676 104.839 144.816 107.778L120.194 122.475C108.855 129.334 96.2203 132.6 82.9373 132.6ZM29.1576 84.263V111.044C29.1576 113.33 30.7775 115.617 33.3693 115.943L67.0626 124.435C83.9093 128.681 101.728 126.068 116.631 116.923L141.253 102.226C143.197 101.246 143.844 98.6335 142.873 96.6738C141.901 94.3876 139.309 93.4078 137.041 94.3876L105.94 108.758C102.376 110.391 98.1641 110.718 94.2764 109.085L63.1749 97.6536C61.5551 97.0004 60.5831 95.0408 61.2311 93.4078C61.879 91.7748 63.8229 90.795 65.4427 91.4482L85.8531 98.3069C88.4449 99.2867 91.3607 97.6537 92.0086 95.0408C92.0086 94.7142 92.0086 94.7142 92.0086 94.3876C92.3326 91.7748 91.0367 89.4886 88.7689 88.5088L62.527 79.6906C53.1317 76.4246 43.0885 77.0778 34.0173 80.997L29.1576 84.263Z" fill="white"/>
<path d="M25.9179 124.435H3.23974C1.2959 124.435 0 123.129 0 121.169V75.4448C0 73.4852 1.2959 72.1788 3.23974 72.1788H25.9179C27.8618 72.1788 29.1577 73.4852 29.1577 75.4448V121.169C29.1577 123.129 27.8618 124.435 25.9179 124.435ZM6.47948 117.903H22.6782V78.7109H6.47948V117.903Z" fill="white"/>
</g>
<defs>
<clipPath id="clip0">
<rect width="150" height="132.6" fill="white"/>
</clipPath>
</defs>
</svg>
