<svg width="150" height="142" viewBox="0 0 150 142" fill="none" xmlns="http://www.w3.org/2000/svg">
<g clip-path="url(#clip0)">
<path d="M82.9374 141.245C77.1058 141.245 71.2743 140.596 65.4428 138.972L31.7494 130.855C26.5659 129.881 22.6782 125.335 22.6782 119.815V90.9164C22.6782 89.6176 23.3261 88.3188 24.622 87.9941L32.0734 84.7471C42.4406 80.2013 54.4276 79.8766 65.1188 83.4483L91.3607 92.2152C97.1922 94.1634 100.432 100.657 98.4881 106.502C97.8402 108.45 96.5443 110.074 95.2484 111.373L96.8682 112.022C99.1361 112.671 101.404 112.671 103.348 111.697L134.449 97.4104C139.633 94.8128 146.112 97.0857 148.704 102.606C151.296 107.476 149.676 113.646 144.816 116.568L120.194 131.179C108.855 137.998 96.2203 141.245 82.9374 141.245ZM29.1576 93.1893V119.815C29.1576 122.088 30.7775 124.361 33.3693 124.685L67.0626 133.128C83.9093 137.349 101.728 134.751 116.631 125.659L141.253 111.048C143.197 110.074 143.844 107.476 142.873 105.528C141.901 103.255 139.309 102.281 137.041 103.255L105.94 117.542C102.376 119.165 98.1641 119.49 94.2765 117.867L63.1749 106.502C61.5551 105.853 60.5831 103.904 61.2311 102.281C61.879 100.657 63.8229 99.6834 65.4428 100.333L85.8531 107.151C88.4449 108.126 91.3607 106.502 92.0086 103.904C92.0086 103.58 92.0086 103.58 92.0086 103.255C92.3326 100.657 91.0367 98.3846 88.7689 97.4104L62.527 88.6435C53.1317 85.3965 43.0885 86.0459 34.0173 89.9423L29.1576 93.1893Z" fill="#FAFAFA"/>
<path d="M25.9179 133.128H3.23974C1.2959 133.128 0 131.829 0 129.881V84.4224C0 82.4742 1.2959 81.1754 3.23974 81.1754H25.9179C27.8618 81.1754 29.1577 82.4742 29.1577 84.4224V129.881C29.1577 131.829 27.8618 133.128 25.9179 133.128ZM6.47948 126.634H22.6782V87.6694H6.47948V126.634Z" fill="#FAFAFA"/>
<path d="M100.432 77.9284C79.0497 77.9284 61.5551 60.3945 61.5551 38.9642C61.5551 17.5339 79.0497 0 100.432 0C121.814 0 139.309 17.5339 139.309 38.9642C139.309 60.3945 121.814 77.9284 100.432 77.9284ZM100.432 6.49403C82.6134 6.49403 68.0346 21.1056 68.0346 38.9642C68.0346 56.8228 82.6134 71.4343 100.432 71.4343C118.251 71.4343 132.829 56.8228 132.829 38.9642C132.829 21.1056 118.251 6.49403 100.432 6.49403Z" fill="#FAFAFA"/>
<path d="M116.631 29.2231C116.631 25.002 114.039 21.4303 110.151 20.1315V16.2351C110.151 14.2868 108.855 12.988 106.911 12.988C104.968 12.988 103.672 14.2868 103.672 16.2351V19.4821H100.432V16.2351C100.432 14.2868 99.1361 12.988 97.1922 12.988C95.2484 12.988 93.9525 14.2868 93.9525 16.2351V19.4821H87.473C85.5292 19.4821 84.2333 20.7809 84.2333 22.7291C84.2333 24.6773 85.5292 25.9761 87.473 25.9761H90.7128V35.7171H87.473C85.5292 35.7171 84.2333 37.0159 84.2333 38.9642C84.2333 40.9124 85.5292 42.2112 87.473 42.2112H90.7128V51.9522H87.473C85.5292 51.9522 84.2333 53.251 84.2333 55.1992C84.2333 57.1474 85.5292 58.4462 87.473 58.4462H93.9525V61.6933C93.9525 63.6415 95.2484 64.9403 97.1922 64.9403C99.1361 64.9403 100.432 63.6415 100.432 61.6933V58.4462H103.672V61.6933C103.672 63.6415 104.968 64.9403 106.911 64.9403C108.855 64.9403 110.151 63.6415 110.151 61.6933V57.7968C114.039 56.498 116.631 52.9263 116.631 48.7052V45.4582C116.631 43.1853 115.659 40.5877 114.039 38.9642C115.659 37.3406 116.631 34.743 116.631 32.4701V29.2231ZM97.1922 25.9761H106.911C108.855 25.9761 110.151 27.2749 110.151 29.2231V32.4701C110.151 34.4183 108.855 35.7171 106.911 35.7171H97.1922V25.9761ZM110.151 48.7052C110.151 50.6534 108.855 51.9522 106.911 51.9522H97.1922V42.2112H106.911C108.855 42.2112 110.151 43.51 110.151 45.4582V48.7052Z" fill="#FAFAFA"/>
</g>
<defs>
<clipPath id="clip0">
<rect width="150" height="141.245" fill="white"/>
</clipPath>
</defs>
</svg>
