<svg width="150" height="150" viewBox="0 0 150 150" fill="none" xmlns="http://www.w3.org/2000/svg">
<path d="M75 0C116.417 0 150 33.5826 150 75C150 116.417 116.417 150 75 150C33.5826 150 0 116.417 0 75C0 33.5826 33.5826 0 75 0ZM24.2334 101.384L115.146 34.2371C104.824 24.0651 90.6507 17.801 75.0187 17.801C43.4181 17.801 17.801 43.4181 17.801 75.0187C17.801 84.5176 20.1197 93.4929 24.2334 101.384ZM125.711 48.4854L34.7607 115.651C45.101 125.879 59.3119 132.199 75.0187 132.199C106.619 132.199 132.236 106.582 132.236 74.9813C132.218 65.4263 129.862 56.4136 125.711 48.4854Z" fill="white"/>
</svg>
